<svg width="165" height="50" viewBox="0 0 165 50" fill="none" xmlns="http://www.w3.org/2000/svg">
<g clip-path="url(#clip0_101_248)">
<path d="M163.949 43.978C163.949 44.6034 163.828 45.2226 163.592 45.8003C163.356 46.378 163.011 46.9028 162.575 47.3447C162.14 47.7867 161.623 48.1371 161.054 48.376C160.485 48.6148 159.875 48.7374 159.26 48.7368H5.78476C4.54084 48.7381 3.34734 48.2375 2.46672 47.3451C1.58611 46.4527 1.09049 45.2416 1.08887 43.978V6.02824C1.09049 4.76413 1.58591 3.55234 2.46635 2.65894C3.34679 1.76555 4.54028 1.26357 5.78476 1.26324H159.258C159.874 1.26324 160.484 1.3865 161.053 1.62598C161.622 1.86546 162.139 2.21647 162.575 2.65896C163.01 3.10144 163.356 3.62674 163.591 4.20485C163.827 4.78296 163.948 5.40255 163.948 6.02824L163.949 43.978Z" fill="black"/>
<path d="M36.8531 24.7391C36.8176 20.7345 40.0812 18.7862 40.2304 18.6955C38.3821 15.9583 35.5174 15.5843 34.5107 15.5545C32.1046 15.2973 29.7707 17.0169 28.5451 17.0169C27.295 17.0169 25.4076 15.5793 23.3734 15.6216C20.7557 15.6626 18.3068 17.202 16.9638 19.5926C14.192 24.4669 16.2592 31.63 18.9148 35.57C20.2432 37.5008 21.7954 39.6541 23.8272 39.5783C25.8149 39.4963 26.5574 38.2923 28.9561 38.2923C31.3328 38.2923 32.03 39.5783 34.1021 39.5298C36.2354 39.4963 37.5785 37.5915 38.8604 35.6445C40.3955 33.4341 41.012 31.2547 41.0365 31.1429C40.9876 31.1255 36.8947 29.5376 36.8531 24.7391ZM32.9389 12.9626C34.0079 11.6046 34.7394 9.75696 34.5364 7.88202C32.989 7.9516 31.0539 8.96921 29.9395 10.2974C28.9536 11.4679 28.0729 13.3863 28.3004 15.1904C30.0386 15.3221 31.8233 14.2995 32.9389 12.9626Z" fill="white"/>
<path d="M159.259 0.15741H77.0537L109.252 49.8439H159.259C160.792 49.8425 162.262 49.2239 163.346 48.1236C164.43 47.0233 165.041 45.5312 165.044 43.9743V6.02948C165.041 4.47227 164.431 2.97965 163.347 1.87889C162.262 0.778124 160.792 0.159052 159.259 0.15741Z" fill="url(#paint0_linear_101_248)"/>
<path d="M65.6436 39.3012H62.8657L61.344 34.4443H56.0549L54.6054 39.3012H51.9009L57.1423 22.766H60.3789L65.6436 39.3012ZM60.8853 32.4066L59.5092 28.0889C59.3637 27.6478 59.0897 26.6091 58.6885 24.9739H58.6395C58.4781 25.6772 58.22 26.7159 57.8665 28.0889L56.5136 32.4066H60.8853ZM79.0965 33.1931C79.0965 35.2209 78.5546 36.8237 77.4696 38.0003C76.4984 39.0478 75.2911 39.5709 73.8514 39.5709C72.2967 39.5709 71.1786 39.008 70.4998 37.8798V44.1358H67.8919V31.297C67.8919 30.0235 67.8589 28.7176 67.7952 27.3782H70.0888L70.2343 29.268H70.2833C71.153 27.8441 72.4728 27.1322 74.244 27.1322C75.6287 27.1322 76.7846 27.6876 77.7094 28.7996C78.6329 29.9141 79.0965 31.3778 79.0965 33.1931ZM76.4397 33.29C76.4397 32.1295 76.1828 31.1728 75.6666 30.4186C75.1027 29.6346 74.3455 29.2419 73.3963 29.2419C72.7529 29.2419 72.1682 29.4606 71.6459 29.8918C71.1224 30.3266 70.7799 30.8945 70.6196 31.5977C70.5481 31.8607 70.5075 32.1314 70.4985 32.4041V34.3934C70.4985 35.2594 70.7603 35.9912 71.2838 36.5901C71.8074 37.1865 72.4875 37.4859 73.3242 37.4859C74.3064 37.4859 75.0709 37.0995 75.6177 36.3329C76.1657 35.5638 76.4397 34.5499 76.4397 33.29ZM92.597 33.1931C92.597 35.2209 92.0551 36.8237 90.9702 38.0003C89.9977 39.0478 88.7916 39.5709 87.3507 39.5709C85.796 39.5709 84.678 39.008 83.9991 37.8798V44.1358H81.3912V31.297C81.3912 30.0235 81.3582 28.7176 81.2946 27.3782H83.5881L83.7337 29.268H83.7826C84.6511 27.8441 85.9709 27.1322 87.7433 27.1322C89.1268 27.1322 90.2827 27.6876 91.2099 28.7996C92.1322 29.9141 92.597 31.3778 92.597 33.1931ZM89.939 33.29C89.939 32.1295 89.6809 31.1728 89.1647 30.4186C88.6008 29.6346 87.8461 29.2419 86.8969 29.2419C86.2535 29.2419 85.6688 29.4606 85.144 29.8918C84.6205 30.3266 84.2792 30.8945 84.119 31.5977C84.0395 31.9257 83.9966 32.1929 83.9966 32.4041V34.3934C83.9966 35.2594 84.2596 35.9912 84.7807 36.5901C85.3043 37.1853 85.9844 37.4859 86.8235 37.4859C87.8069 37.4859 88.5714 37.0995 89.117 36.3329C89.665 35.5638 89.939 34.5499 89.939 33.29ZM107.691 34.663C107.691 36.0707 107.207 37.2151 106.244 38.0985C105.185 39.0627 103.706 39.546 101.81 39.546C100.059 39.546 98.6544 39.2031 97.5951 38.516L98.1981 36.3081C99.3418 36.9964 100.598 37.3393 101.966 37.3393C102.949 37.3393 103.714 37.1132 104.259 36.6646C104.806 36.2149 105.082 35.6135 105.082 34.863C105.082 34.1908 104.854 33.628 104.405 33.1695C103.953 32.7122 103.207 32.2861 102.159 31.8947C99.3088 30.8149 97.8825 29.2357 97.8825 27.1583C97.8825 25.8014 98.3865 24.6906 99.3919 23.8221C100.397 22.9549 101.731 22.5212 103.389 22.5212C104.871 22.5212 106.105 22.7834 107.085 23.3065L106.43 25.466C105.508 24.959 104.467 24.7056 103.303 24.7056C102.383 24.7056 101.661 24.9354 101.145 25.3927C100.711 25.8014 100.49 26.2997 100.49 26.8911C100.49 27.5434 100.741 28.0852 101.24 28.5101C101.673 28.9015 102.463 29.3277 103.606 29.7849C105.008 30.3589 106.038 31.0274 106.697 31.7953C107.361 32.5631 107.691 33.5211 107.691 34.663ZM116.336 29.3662H113.461V35.155C113.461 36.6274 113.968 37.3617 114.983 37.3617C115.449 37.3617 115.836 37.3219 116.141 37.2387L116.214 39.2503C115.7 39.4454 115.023 39.5435 114.185 39.5435C113.155 39.5435 112.351 39.2242 111.77 38.5856C111.191 37.9469 110.9 36.8771 110.9 35.3712V29.3612H109.187V27.3732H110.9V25.1901L113.461 24.4049V27.3732H116.336V29.3662ZM129.28 33.2416C129.28 35.0742 128.764 36.5789 127.734 37.7556C126.656 38.967 125.222 39.5709 123.435 39.5709C121.711 39.5709 120.339 38.9906 119.317 37.8314C118.294 36.6696 117.783 35.206 117.783 33.4404C117.783 31.5928 118.311 30.0794 119.364 28.9027C120.42 27.7248 121.841 27.1359 123.629 27.1359C125.351 27.1359 126.734 27.7174 127.781 28.8779C128.782 30.0036 129.28 31.4573 129.28 33.2416ZM126.577 33.3024C126.577 32.2103 126.344 31.2734 125.878 30.4894C125.331 29.5426 124.548 29.0692 123.534 29.0692C122.49 29.0692 121.689 29.5426 121.143 30.4894C120.676 31.2734 120.443 32.2264 120.443 33.3521C120.443 34.4455 120.676 35.3849 121.143 36.1664C121.707 37.1132 122.493 37.5866 123.512 37.5866C124.509 37.5866 125.291 37.1033 125.856 36.1428C126.336 35.3401 126.577 34.3971 126.577 33.3024ZM137.76 29.7079C137.489 29.6581 137.214 29.6336 136.938 29.6346C136.021 29.6346 135.311 29.985 134.812 30.6907C134.379 31.3119 134.162 32.0972 134.162 33.0452V39.3012H131.554V31.133C131.556 29.8814 131.531 28.6299 131.478 27.3794H133.749L133.845 29.6607H133.917C134.193 28.8766 134.626 28.2442 135.221 27.7708C135.765 27.3572 136.426 27.1331 137.106 27.1322C137.347 27.1322 137.565 27.1496 137.758 27.1806L137.76 29.7079ZM149.424 32.7756C149.43 33.1783 149.398 33.5807 149.328 33.9771H141.505C141.534 35.155 141.913 36.0571 142.64 36.6783C143.299 37.2325 144.152 37.5108 145.199 37.5108C146.357 37.5108 147.414 37.3244 148.364 36.9479L148.773 38.7856C147.662 39.2776 146.351 39.5224 144.838 39.5224C143.018 39.5224 141.589 38.9782 140.549 37.8922C139.512 36.8051 138.992 35.3439 138.992 33.5137C138.992 31.717 139.475 30.2198 140.443 29.0257C141.456 27.7509 142.824 27.1135 144.547 27.1135C146.238 27.1135 147.519 27.7509 148.389 29.0257C149.077 30.0359 149.424 31.2883 149.424 32.7756ZM146.937 32.0885C146.955 31.302 146.784 30.6248 146.43 30.052C145.979 29.314 145.284 28.9462 144.353 28.9462C143.501 28.9462 142.806 29.3053 142.278 30.026C141.843 30.5988 141.585 31.2871 141.506 32.086L146.937 32.0885Z" fill="white"/>
<path d="M55.3029 16.92C54.5775 16.92 53.95 16.884 53.4277 16.8231V8.82887C54.1582 8.71424 54.8965 8.65774 55.6356 8.65989C58.6264 8.65989 60.0037 10.1546 60.0037 12.5912C60.0037 15.4017 58.3768 16.92 55.3029 16.92ZM55.7408 9.68495C55.3372 9.68495 54.9934 9.7098 54.7084 9.76944V15.8465C54.8626 15.8714 55.1586 15.8826 55.5745 15.8826C57.534 15.8826 58.6496 14.7494 58.6496 12.6272C58.6496 10.7349 57.6405 9.68495 55.7408 9.68495ZM64.2959 16.9809C62.6104 16.9809 61.518 15.7024 61.518 13.9666C61.518 12.1575 62.6336 10.8678 64.3913 10.8678C66.0525 10.8678 67.1693 12.0855 67.1693 13.8709C67.1693 15.7024 66.0182 16.9809 64.2959 16.9809ZM64.3449 11.8196C63.4189 11.8196 62.8256 12.6993 62.8256 13.9293C62.8256 15.1358 63.4311 16.0155 64.3326 16.0155C65.2341 16.0155 65.8396 15.0749 65.8396 13.9045C65.8396 12.7117 65.2464 11.8196 64.3449 11.8196ZM76.7812 10.9883L74.977 16.848H73.8015L73.0541 14.3033C72.8683 13.6809 72.7136 13.0493 72.5905 12.411H72.5661C72.4719 13.0496 72.2933 13.6895 72.1037 14.3033L71.3086 16.848H70.1209L68.423 10.9883H69.7404L70.3936 13.774C70.5478 14.4375 70.6774 15.0637 70.7851 15.6552H70.8095C70.9037 15.1619 71.0578 14.5456 71.2841 13.7865L72.1037 10.9896H73.1483L73.9324 13.7268C74.122 14.3903 74.2761 15.0414 74.396 15.6564H74.4302C74.5134 15.0538 74.6443 14.4139 74.8216 13.7268L75.5225 10.9896L76.7812 10.9883ZM83.4232 16.848H82.1413V13.4833C82.1413 12.447 81.7499 11.9277 80.978 11.9277C80.2184 11.9277 79.6961 12.5912 79.6961 13.3628V16.848H78.4142V12.6632C78.4142 12.1451 78.402 11.5897 78.3665 10.9871H79.4943L79.5542 11.8916H79.5897C79.9347 11.2654 80.6343 10.8678 81.4184 10.8678C82.6294 10.8678 83.4245 11.8084 83.4245 13.3392L83.4232 16.848ZM86.9583 16.848H85.6752V8.29956H86.9583V16.848ZM91.6322 16.9809C89.9478 16.9809 88.8543 15.7024 88.8543 13.9666C88.8543 12.1575 89.9699 10.8678 91.7264 10.8678C93.3887 10.8678 94.5043 12.0855 94.5043 13.8709C94.5055 15.7024 93.3533 16.9809 91.6322 16.9809ZM91.6799 11.8196C90.7539 11.8196 90.1607 12.6993 90.1607 13.9293C90.1607 15.1358 90.7674 16.0155 91.6665 16.0155C92.5692 16.0155 93.1734 15.0749 93.1734 13.9045C93.1747 12.7117 92.5826 11.8196 91.6799 11.8196ZM99.5586 16.848L99.4656 16.1733H99.4314C99.04 16.7163 98.4687 16.9809 97.7446 16.9809C96.711 16.9809 95.977 16.2454 95.977 15.2563C95.977 13.8101 97.2113 13.0621 99.3482 13.0621V12.954C99.3482 12.1824 98.9458 11.796 98.1507 11.796C97.5819 11.796 97.0828 11.9413 96.6437 12.2308L96.3831 11.3748C96.9165 11.0368 97.5819 10.8678 98.3635 10.8678C99.8705 10.8678 100.631 11.6754 100.631 13.2919V15.4502C100.631 16.0416 100.657 16.5001 100.715 16.8492L99.5586 16.848ZM99.3824 13.9293C97.9586 13.9293 97.2443 14.2797 97.2443 15.111C97.2443 15.726 97.6125 16.0267 98.1238 16.0267C98.7757 16.0267 99.3824 15.521 99.3824 14.8339V13.9293ZM106.856 16.848L106.796 15.9074H106.761C106.393 16.6181 105.774 16.9809 104.909 16.9809C103.518 16.9809 102.488 15.7384 102.488 13.9902C102.488 12.1575 103.556 10.8666 105.014 10.8666C105.786 10.8666 106.333 11.1312 106.641 11.663H106.667V8.29956H107.95V15.2688C107.95 15.8353 107.963 16.3659 107.998 16.848H106.856ZM106.667 13.4C106.667 12.58 106.132 11.8805 105.316 11.8805C104.366 11.8805 103.785 12.7365 103.785 13.9418C103.785 15.1234 104.388 15.9323 105.291 15.9323C106.097 15.9323 106.667 15.2203 106.667 14.3766V13.4ZM116.085 16.9809C114.401 16.9809 113.309 15.7024 113.309 13.9666C113.309 12.1575 114.424 10.8678 116.181 10.8678C117.843 10.8678 118.959 12.0855 118.959 13.8709C118.96 15.7024 117.809 16.9809 116.085 16.9809ZM116.133 11.8196C115.208 11.8196 114.615 12.6993 114.615 13.9293C114.615 15.1358 115.221 16.0155 116.121 16.0155C117.024 16.0155 117.628 15.0749 117.628 13.9045C117.63 12.7117 117.037 11.8196 116.133 11.8196ZM125.853 16.848H124.57V13.4833C124.57 12.447 124.178 11.9277 123.406 11.9277C122.647 11.9277 122.126 12.5912 122.126 13.3628V16.848H120.842V12.6632C120.842 12.1451 120.83 11.5897 120.795 10.9871H121.923L121.982 11.8916H122.018C122.362 11.2654 123.063 10.8666 123.845 10.8666C125.056 10.8666 125.853 11.8071 125.853 13.3379V16.848ZM134.478 11.9649H133.067V14.8103C133.067 15.5347 133.314 15.8962 133.813 15.8962C134.04 15.8962 134.229 15.8714 134.382 15.8353L134.418 16.8244C134.169 16.9213 133.837 16.9697 133.423 16.9697C132.413 16.9697 131.808 16.4032 131.808 14.9196V11.9649H130.967V10.9883H131.808V9.91481L133.067 9.5284V10.9871H134.478V11.9649ZM141.264 16.848H139.983V13.5081C139.983 12.4595 139.593 11.9289 138.82 11.9289C138.156 11.9289 137.537 12.3874 137.537 13.3155V16.848H136.256V8.29956H137.537V11.8196H137.562C137.966 11.1809 138.551 10.8666 139.297 10.8666C140.518 10.8666 141.264 11.8308 141.264 13.3628V16.848ZM148.217 14.2313H144.37C144.394 15.3408 145.117 15.967 146.187 15.967C146.756 15.967 147.28 15.8701 147.742 15.69L147.941 16.5945C147.396 16.8356 146.754 16.9561 146.006 16.9561C144.202 16.9561 143.134 15.7981 143.134 14.0026C143.134 12.206 144.228 10.8554 145.862 10.8554C147.336 10.8554 148.261 11.9649 148.261 13.6411C148.269 13.8389 148.254 14.037 148.217 14.2313ZM147.041 13.3031C147.041 12.3986 146.592 11.7599 145.773 11.7599C145.036 11.7599 144.454 12.411 144.371 13.3031H147.041Z" fill="white"/>
</g>
<defs>
<linearGradient id="paint0_linear_101_248" x1="121.047" y1="49.9758" x2="121.047" y2="-129.218" gradientUnits="userSpaceOnUse">
<stop stop-color="#1A1A1A" stop-opacity="0.1"/>
<stop offset="0.123" stop-color="#212121" stop-opacity="0.151"/>
<stop offset="0.308" stop-color="#353535" stop-opacity="0.227"/>
<stop offset="0.532" stop-color="#575757" stop-opacity="0.318"/>
<stop offset="0.783" stop-color="#858585" stop-opacity="0.421"/>
<stop offset="1" stop-color="#B3B3B3" stop-opacity="0.51"/>
</linearGradient>
<clipPath id="clip0_101_248">
<rect width="165" height="50" fill="white"/>
</clipPath>
</defs>
</svg>
