<svg width="429" height="135" viewBox="0 0 429 135" fill="none" xmlns="http://www.w3.org/2000/svg">
<path d="M177.411 43.322C180.711 43.322 183.294 44.272 185.161 46.172C187.061 48.072 188.011 50.872 188.011 54.572V69.822H184.461V54.922C184.461 52.1886 183.794 50.1053 182.461 48.672C181.161 47.2386 179.311 46.522 176.911 46.522C174.177 46.522 172.027 47.372 170.461 49.072C168.894 50.7386 168.111 53.0553 168.111 56.022V69.822H164.561V54.922C164.561 52.1886 163.894 50.1053 162.561 48.672C161.261 47.2386 159.394 46.522 156.961 46.522C154.261 46.522 152.111 47.372 150.511 49.072C148.944 50.7386 148.161 53.0553 148.161 56.022V69.822H144.611V43.522H148.011V48.322C148.944 46.722 150.244 45.4886 151.911 44.622C153.577 43.7553 155.494 43.322 157.661 43.322C159.861 43.322 161.761 43.7886 163.361 44.722C164.994 45.6553 166.211 47.0386 167.011 48.872C167.977 47.1386 169.361 45.7886 171.161 44.822C172.994 43.822 175.077 43.322 177.411 43.322ZM219.25 43.522L206.1 72.972C205.033 75.4386 203.8 77.1886 202.4 78.222C201 79.2553 199.316 79.772 197.35 79.772C196.083 79.772 194.9 79.572 193.8 79.172C192.7 78.772 191.75 78.172 190.95 77.372L192.6 74.722C193.933 76.0553 195.533 76.722 197.4 76.722C198.6 76.722 199.616 76.3886 200.45 75.722C201.316 75.0553 202.116 73.922 202.85 72.322L204 69.772L192.25 43.522H195.95L205.85 65.872L215.75 43.522H219.25ZM233.682 35.472C232.148 35.472 230.982 35.8886 230.182 36.722C229.415 37.5553 229.032 38.7886 229.032 40.422V43.522H237.132V46.522H229.132V69.822H225.582V46.522H220.882V43.522H225.582V40.272C225.582 37.872 226.265 35.972 227.632 34.572C229.032 33.172 230.998 32.472 233.532 32.472C234.532 32.472 235.498 32.622 236.432 32.922C237.365 33.1886 238.148 33.5886 238.782 34.122L237.582 36.772C236.548 35.9053 235.248 35.472 233.682 35.472ZM245.932 43.522H249.482V69.822H245.932V43.522ZM247.732 37.772C246.998 37.772 246.382 37.522 245.882 37.022C245.382 36.522 245.132 35.922 245.132 35.222C245.132 34.5553 245.382 33.972 245.882 33.472C246.382 32.972 246.998 32.722 247.732 32.722C248.465 32.722 249.082 32.972 249.582 33.472C250.082 33.9386 250.332 34.5053 250.332 35.172C250.332 35.9053 250.082 36.522 249.582 37.022C249.082 37.522 248.465 37.772 247.732 37.772ZM273.256 68.222C272.589 68.822 271.756 69.2886 270.756 69.622C269.789 69.922 268.772 70.072 267.706 70.072C265.239 70.072 263.339 69.4053 262.006 68.072C260.672 66.7386 260.006 64.8553 260.006 62.422V46.522H255.306V43.522H260.006V37.772H263.556V43.522H271.556V46.522H263.556V62.222C263.556 63.7886 263.939 64.9886 264.706 65.822C265.506 66.622 266.639 67.022 268.106 67.022C268.839 67.022 269.539 66.9053 270.206 66.672C270.906 66.4386 271.506 66.1053 272.006 65.672L273.256 68.222ZM293.118 43.322C296.418 43.322 299.035 44.2886 300.968 46.222C302.935 48.122 303.918 50.9053 303.918 54.572V69.822H300.368V54.922C300.368 52.1886 299.685 50.1053 298.318 48.672C296.951 47.2386 295.001 46.522 292.468 46.522C289.635 46.522 287.385 47.372 285.718 49.072C284.085 50.7386 283.268 53.0553 283.268 56.022V69.822H279.718V43.522H283.118V48.372C284.085 46.772 285.418 45.5386 287.118 44.672C288.851 43.772 290.851 43.322 293.118 43.322ZM336.554 57.772H314.554C314.754 60.5053 315.804 62.722 317.704 64.422C319.604 66.0886 322.004 66.922 324.904 66.922C326.537 66.922 328.037 66.6386 329.404 66.072C330.77 65.472 331.954 64.6053 332.954 63.472L334.954 65.772C333.787 67.172 332.32 68.2386 330.554 68.972C328.82 69.7053 326.904 70.072 324.804 70.072C322.104 70.072 319.704 69.5053 317.604 68.372C315.537 67.2053 313.92 65.6053 312.754 63.572C311.587 61.5386 311.004 59.2386 311.004 56.672C311.004 54.1053 311.554 51.8053 312.654 49.772C313.787 47.7386 315.32 46.1553 317.254 45.022C319.22 43.8886 321.42 43.322 323.854 43.322C326.287 43.322 328.47 43.8886 330.404 45.022C332.337 46.1553 333.854 47.7386 334.954 49.772C336.054 51.772 336.604 54.072 336.604 56.672L336.554 57.772ZM323.854 46.372C321.32 46.372 319.187 47.1886 317.454 48.822C315.754 50.422 314.787 52.522 314.554 55.122H333.204C332.97 52.522 331.987 50.422 330.254 48.822C328.554 47.1886 326.42 46.372 323.854 46.372ZM350.879 70.072C348.746 70.072 346.696 69.772 344.729 69.172C342.796 68.5386 341.279 67.7553 340.179 66.822L341.779 64.022C342.879 64.8886 344.263 65.6053 345.929 66.172C347.596 66.7053 349.329 66.972 351.129 66.972C353.529 66.972 355.296 66.6053 356.429 65.872C357.596 65.1053 358.179 64.0386 358.179 62.672C358.179 61.7053 357.863 60.9553 357.229 60.422C356.596 59.8553 355.796 59.4386 354.829 59.172C353.863 58.872 352.579 58.5886 350.979 58.322C348.846 57.922 347.129 57.522 345.829 57.122C344.529 56.6886 343.413 55.972 342.479 54.972C341.579 53.972 341.129 52.5886 341.129 50.822C341.129 48.622 342.046 46.822 343.879 45.422C345.713 44.022 348.263 43.322 351.529 43.322C353.229 43.322 354.929 43.5553 356.629 44.022C358.329 44.4553 359.729 45.0386 360.829 45.772L359.279 48.622C357.113 47.122 354.529 46.372 351.529 46.372C349.263 46.372 347.546 46.772 346.379 47.572C345.246 48.372 344.679 49.422 344.679 50.722C344.679 51.722 344.996 52.522 345.629 53.122C346.296 53.722 347.113 54.172 348.079 54.472C349.046 54.7386 350.379 55.022 352.079 55.322C354.179 55.722 355.863 56.122 357.129 56.522C358.396 56.922 359.479 57.6053 360.379 58.572C361.279 59.5386 361.729 60.872 361.729 62.572C361.729 64.872 360.763 66.7053 358.829 68.072C356.929 69.4053 354.279 70.072 350.879 70.072ZM375.342 70.072C373.209 70.072 371.159 69.772 369.192 69.172C367.259 68.5386 365.742 67.7553 364.642 66.822L366.242 64.022C367.342 64.8886 368.726 65.6053 370.392 66.172C372.059 66.7053 373.792 66.972 375.592 66.972C377.992 66.972 379.759 66.6053 380.892 65.872C382.059 65.1053 382.642 64.0386 382.642 62.672C382.642 61.7053 382.326 60.9553 381.692 60.422C381.059 59.8553 380.259 59.4386 379.292 59.172C378.326 58.872 377.042 58.5886 375.442 58.322C373.309 57.922 371.592 57.522 370.292 57.122C368.992 56.6886 367.876 55.972 366.942 54.972C366.042 53.972 365.592 52.5886 365.592 50.822C365.592 48.622 366.509 46.822 368.342 45.422C370.176 44.022 372.726 43.322 375.992 43.322C377.692 43.322 379.392 43.5553 381.092 44.022C382.792 44.4553 384.192 45.0386 385.292 45.772L383.742 48.622C381.576 47.122 378.992 46.372 375.992 46.372C373.726 46.372 372.009 46.772 370.842 47.572C369.709 48.372 369.142 49.422 369.142 50.722C369.142 51.722 369.459 52.522 370.092 53.122C370.759 53.722 371.576 54.172 372.542 54.472C373.509 54.7386 374.842 55.022 376.542 55.322C378.642 55.722 380.326 56.122 381.592 56.522C382.859 56.922 383.942 57.6053 384.842 58.572C385.742 59.5386 386.192 60.872 386.192 62.572C386.192 64.872 385.226 66.7053 383.292 68.072C381.392 69.4053 378.742 70.072 375.342 70.072Z" fill="white"/>
<path d="M345.569 107.709C344.009 107.709 342.609 107.369 341.369 106.689C340.149 106.009 339.189 105.059 338.489 103.839C337.789 102.599 337.439 101.209 337.439 99.6691C337.439 98.1291 337.789 96.7491 338.489 95.5291C339.189 94.3091 340.149 93.3591 341.369 92.6791C342.609 91.9991 344.009 91.6591 345.569 91.6591C346.929 91.6591 348.139 91.9291 349.199 92.4691C350.279 92.9891 351.129 93.7591 351.749 94.7791L350.159 95.8591C349.639 95.0791 348.979 94.4991 348.179 94.1191C347.379 93.7191 346.509 93.5191 345.569 93.5191C344.429 93.5191 343.399 93.7791 342.479 94.2991C341.579 94.7991 340.869 95.5191 340.349 96.4591C339.849 97.3991 339.599 98.4691 339.599 99.6691C339.599 100.889 339.849 101.969 340.349 102.909C340.869 103.829 341.579 104.549 342.479 105.069C343.399 105.569 344.429 105.819 345.569 105.819C346.509 105.819 347.379 105.629 348.179 105.249C348.979 104.869 349.639 104.289 350.159 103.509L351.749 104.589C351.129 105.609 350.279 106.389 349.199 106.929C348.119 107.449 346.909 107.709 345.569 107.709ZM355.699 85.2991H357.829V107.559H355.699V85.2991ZM377.975 91.7791V107.559H375.935V104.679C375.375 105.639 374.605 106.389 373.625 106.929C372.645 107.449 371.525 107.709 370.265 107.709C368.205 107.709 366.575 107.139 365.375 105.999C364.195 104.839 363.605 103.149 363.605 100.929V91.7791H365.735V100.719C365.735 102.379 366.145 103.639 366.965 104.499C367.785 105.359 368.955 105.789 370.475 105.789C372.135 105.789 373.445 105.289 374.405 104.289C375.365 103.269 375.845 101.859 375.845 100.059V91.7791H377.975ZM392.071 91.6591C393.551 91.6591 394.891 91.9991 396.091 92.6791C397.291 93.3391 398.231 94.2791 398.911 95.4991C399.591 96.7191 399.931 98.1091 399.931 99.6691C399.931 101.229 399.591 102.619 398.911 103.839C398.231 105.059 397.291 106.009 396.091 106.689C394.891 107.369 393.551 107.709 392.071 107.709C390.751 107.709 389.561 107.429 388.501 106.869C387.461 106.309 386.621 105.499 385.981 104.439V107.559H383.941V85.2991H386.071V94.7791C386.731 93.7591 387.571 92.9891 388.591 92.4691C389.631 91.9291 390.791 91.6591 392.071 91.6591ZM391.921 105.819C393.021 105.819 394.021 105.569 394.921 105.069C395.821 104.549 396.521 103.819 397.021 102.879C397.541 101.939 397.801 100.869 397.801 99.6691C397.801 98.4691 397.541 97.3991 397.021 96.4591C396.521 95.5191 395.821 94.7991 394.921 94.2991C394.021 93.7791 393.021 93.5191 391.921 93.5191C390.801 93.5191 389.791 93.7791 388.891 94.2991C388.011 94.7991 387.311 95.5191 386.791 96.4591C386.291 97.3991 386.041 98.4691 386.041 99.6691C386.041 100.869 386.291 101.939 386.791 102.879C387.311 103.819 388.011 104.549 388.891 105.069C389.791 105.569 390.801 105.819 391.921 105.819Z" fill="#A5BC52"/>
<path d="M11.3431 15.5407L0 25.6866V25.8411H11.5233V15.5407H11.3431Z" fill="#6CB2AA"/>
<path d="M14.1113 51.811V15.5407H24.8106L47.2264 40.2231L37.2867 51.811" fill="#6CB2AA"/>
<path d="M39.6938 51.8108L81.4224 4.02979H85.9545V51.8108" fill="#6CB2AA"/>
<path d="M87.5513 51.8111V0H139.271" fill="#6CB2AA"/>
<path d="M66.3331 107.395L16.2871 54.3345H86.2124" fill="#6CB2AA"/>
<path d="M62.8057 122.91L86.2128 60.6567V135" fill="#6CB2AA"/>
<path d="M121.129 22.7894L136.245 7.60919L141.846 9.87528" fill="#6CB2AA"/>
</svg>
