<svg width="161" height="48" viewBox="0 0 161 48" fill="none" xmlns="http://www.w3.org/2000/svg">
<g clip-path="url(#clip0_101_259)">
<path d="M154.936 47.4562H6.06332C2.78815 47.4562 0.108398 44.7777 0.108398 41.504V5.79021C0.108398 2.51642 2.7881 -0.162109 6.06332 -0.162109H154.936C158.211 -0.162109 160.891 2.51642 160.891 5.79021V41.5039C160.891 44.7777 158.211 47.4562 154.936 47.4562Z" fill="black"/>
<path d="M56.583 12.0323C56.583 13.0297 56.2874 13.8239 55.6957 14.4164C55.0234 15.1209 54.1474 15.4734 53.0703 15.4734C52.0389 15.4734 51.162 15.1163 50.4409 14.401C49.7185 13.6863 49.3579 12.8 49.3579 11.7425C49.3579 10.6846 49.7185 9.79877 50.4409 9.08345C51.162 8.36877 52.0389 8.01111 53.0703 8.01111C53.5821 8.01111 54.0721 8.11116 54.5373 8.31067C55.0025 8.51066 55.3756 8.77613 55.6548 9.1086L55.0266 9.73682C54.5536 9.17184 53.9022 8.88956 53.0703 8.88956C52.3182 8.88956 51.6677 9.15375 51.1188 9.68246C50.5698 10.2117 50.2953 10.898 50.2953 11.7425C50.2953 12.587 50.5698 13.2733 51.1188 13.8026C51.6677 14.3313 52.3181 14.5954 53.0703 14.5954C53.8683 14.5954 54.5336 14.3299 55.0662 13.7979C55.412 13.4514 55.6119 12.9697 55.6654 12.3512H53.0703V11.4932H56.5331C56.5666 11.6798 56.5828 11.8588 56.5828 12.0323" fill="white"/>
<path d="M56.5828 12.0322H56.4637C56.4627 13.0069 56.178 13.7639 55.6113 14.3322L55.61 14.3331L55.6095 14.3341C54.9587 15.0143 54.122 15.3529 53.0702 15.3543C52.0663 15.3529 51.2261 15.0106 50.5244 14.3168C49.8244 13.6216 49.4782 12.7729 49.4769 11.7425C49.4782 10.7115 49.8244 9.86331 50.5244 9.16859C51.2261 8.47429 52.0663 8.13156 53.0702 8.13011C53.5666 8.13011 54.0393 8.22695 54.4901 8.41988C54.9413 8.61431 55.2978 8.86909 55.5634 9.18539L55.6546 9.10856L55.5704 9.0244L54.9423 9.65305L55.0265 9.73678L55.1182 9.6606C54.6231 9.06763 53.9282 8.76872 53.0702 8.77048C52.2901 8.76952 51.6039 9.04816 51.0362 9.59693C50.4631 10.1475 50.1752 10.8724 50.1761 11.7425C50.1752 12.6126 50.4631 13.3375 51.0362 13.8881C51.6039 14.4368 52.2901 14.7154 53.0702 14.7145C53.8946 14.7159 54.5971 14.4364 55.1503 13.8821C55.5197 13.5118 55.7291 12.999 55.784 12.3614L55.7951 12.2321H53.1893V11.6122H56.533V11.4932L56.4157 11.5141C56.4483 11.6946 56.4637 11.8662 56.4637 12.0322H56.7019C56.7019 11.8513 56.6851 11.6653 56.6502 11.4719L56.6325 11.3742H52.9511V12.4702H55.6653V12.3512L55.5467 12.3409C55.4941 12.94 55.3033 13.391 54.9819 13.7138C54.4701 14.2234 53.8421 14.4749 53.0702 14.4764C52.3459 14.4754 51.7314 14.2261 51.2015 13.717C50.6767 13.2096 50.4157 12.5619 50.4143 11.7425C50.4157 10.9231 50.6767 10.2753 51.2015 9.76797C51.7314 9.25879 52.3459 9.00953 53.0702 9.00857C53.8756 9.01049 54.4837 9.27645 54.9354 9.81356L55.0192 9.91307L55.7389 9.19277L55.8161 9.11562L55.7458 9.03227C55.4532 8.68359 55.0633 8.40683 54.5841 8.20138C54.104 7.99529 53.5974 7.89203 53.0702 7.89203C52.0114 7.89112 51.0977 8.26312 50.3566 8.99931C49.6127 9.73405 49.2378 10.6576 49.2388 11.7425C49.2378 12.8268 49.6127 13.7509 50.3571 14.4861C51.0977 15.2218 52.0114 15.5934 53.0702 15.5924C54.1729 15.5934 55.0875 15.2273 55.7817 14.4986L55.6955 14.4163L55.7797 14.5006C56.3966 13.8844 56.7027 13.052 56.7019 12.0322H56.5828ZM62.0724 9.04859H58.8181V11.3133H61.7529V12.1716H58.8181V14.4364H62.0724V15.3138H57.9007V8.1711H62.0724V9.04859Z" fill="white"/>
<path d="M62.0725 9.04859V8.92955H58.6992V11.4324H61.6338V12.0523L58.6991 12.0526V14.5554H61.9534V15.1948H58.0199V8.29015H61.9534V9.04859H62.0725H62.1916V8.05206H57.7817V15.4329H62.1916V14.3173H58.9373V12.2907H61.872V11.1943H58.9373V9.16763H62.1916V9.04859H62.0725ZM65.9446 15.3139H65.0258V9.04854H63.0299V8.17105H67.9404V9.04854H65.9446V15.3138" fill="white"/>
<path d="M65.9444 15.3139V15.1948H65.1447V8.92955H63.1488V8.2902H67.8211V8.92955H65.8253V15.3138H65.9444H66.0635V9.16763H68.0593V8.05206H62.9106V9.16758H64.9065V15.4328H66.0635V15.3138H65.9444M71.4932 15.3139V8.17105H72.4111V15.3138H71.4932" fill="white"/>
<path d="M71.4936 15.3139H71.6127V8.29015H72.2924V15.1948H71.4936V15.3138V15.4329H72.5306V8.05206H71.3745V15.4329H71.4936V15.3138M76.4845 15.3139H75.5657V9.04854H73.5699V8.17105H78.4804V9.04854H76.4845V15.3138" fill="white"/>
<path d="M76.4843 15.3139V15.1948H75.6846V8.92958H73.6889V8.29023H78.3611V8.92958H76.3653V15.3139H76.4843H76.6035V9.16766H78.5993V8.05209H73.4507V9.16761H75.4464V15.4329H76.6035V15.3138H76.4843M83.2144 13.7929C83.7433 14.328 84.3905 14.5954 85.1558 14.5954C85.9211 14.5954 86.5686 14.328 87.0967 13.7929C87.6261 13.2576 87.8913 12.5734 87.8913 11.7425C87.8913 10.9116 87.6261 10.2274 87.0967 9.6922C86.5686 9.15696 85.9211 8.88956 85.1558 8.88956C84.3905 8.88956 83.7433 9.15696 83.2144 9.6922C82.6863 10.2274 82.4212 10.9116 82.4212 11.7425C82.4212 12.5734 82.6863 13.2576 83.2144 13.7929ZM87.7759 14.3908C87.0734 15.1129 86.1997 15.4734 85.1558 15.4734C84.1108 15.4734 83.2375 15.1129 82.5366 14.3908C81.8335 13.6695 81.4837 12.7865 81.4837 11.7425C81.4837 10.6985 81.8335 9.81536 82.5366 9.0942C83.2376 8.37193 84.1108 8.01111 85.1558 8.01111C86.1942 8.01111 87.0655 8.37385 87.7713 9.09886C88.4761 9.82381 88.8288 10.705 88.8288 11.7425C88.8288 12.7865 88.4769 13.6695 87.7759 14.3908Z" fill="white"/>
<path d="M83.2145 13.7928L83.1298 13.8765C83.6783 14.4331 84.3627 14.7159 85.1559 14.7145C85.9486 14.7159 86.6339 14.4331 87.1815 13.8765C87.7337 13.3193 88.0114 12.5986 88.0105 11.7425C88.0113 10.8864 87.7337 10.1656 87.1815 9.60843C86.6339 9.0518 85.9486 8.76909 85.1559 8.77048C84.3627 8.76909 83.6783 9.0518 83.1298 9.60843C82.579 10.1656 82.3007 10.8864 82.3022 11.7425C82.3007 12.5985 82.579 13.3193 83.1298 13.8765L83.2145 13.7928L83.2992 13.7091C82.7939 13.1952 82.5413 12.5488 82.5404 11.7425C82.5413 10.9362 82.7939 10.2898 83.2991 9.77584C83.809 9.26206 84.418 9.01001 85.1559 9.00862C85.8932 9.01001 86.5036 9.26206 87.0122 9.77584C87.5183 10.2898 87.7709 10.9362 87.7718 11.7425C87.7709 12.5487 87.5183 13.1952 87.0122 13.7091C86.5036 14.2229 85.8933 14.4749 85.1559 14.4763C84.418 14.4749 83.809 14.2229 83.2992 13.7091L83.2145 13.7928ZM87.776 14.3908L87.6909 14.3081C87.008 15.0074 86.1729 15.353 85.1559 15.3543C84.1384 15.3529 83.3033 15.0074 82.6217 14.3081C81.9402 13.6063 81.6039 12.76 81.6029 11.7425C81.6039 10.725 81.9402 9.87867 82.6217 9.17694C83.3033 8.4775 84.1384 8.13156 85.1559 8.13017C86.1663 8.13156 86.9995 8.47895 87.6862 9.18202C88.3701 9.88702 88.7083 10.732 88.7098 11.7425C88.7083 12.76 88.3711 13.6063 87.6909 14.3081L87.776 14.3908L87.8617 14.4735C88.5836 13.7323 88.9488 12.8129 88.948 11.7425C88.9488 10.6781 88.5822 9.76059 87.8569 9.01611C87.1312 8.26869 86.2222 7.89075 85.1559 7.89203C84.084 7.89075 83.1722 8.26692 82.451 9.01146V9.01092C81.7276 9.75262 81.3638 10.672 81.3647 11.7425C81.3638 12.8129 81.7276 13.7323 82.451 14.474L82.4543 14.4773L82.451 14.4735C83.1722 15.218 84.084 15.5934 85.1559 15.5924C86.2273 15.5934 87.1391 15.218 87.8617 14.4735L87.776 14.3908ZM90.1175 15.3139V8.17105H91.235L94.7079 13.7276H94.7475L94.7079 12.3511V8.17105H95.6268V15.3138H94.6683L91.0349 9.48795H90.9954L91.0349 10.8649V15.3138H90.1175" fill="white"/>
<path d="M90.1172 15.3139H90.2363V8.29015H91.1686L94.6415 13.8467H94.8695L94.8267 12.3494V8.2902H95.5074V15.1948H94.7342L91.1008 9.36896H90.8728L90.9155 10.8669V15.1948H90.1173V15.3138V15.4329H91.1537V10.8631L91.1142 9.4848L90.9951 9.48801V9.60705H91.0347V9.48801L90.9337 9.5513L94.602 15.4329H95.7456V8.05206H94.5886V12.3526L94.6281 13.7309L94.7472 13.7277V13.6086H94.7076V13.7277L94.8086 13.6645L91.3007 8.05206H89.9982V15.4329H90.1173V15.3138M127.467 35.5517H129.69V20.6695H127.467L127.467 35.5517ZM147.484 26.0304L144.937 32.4826H144.86L142.216 26.0304H139.822L143.787 35.0485L141.527 40.0647H143.846L149.955 26.0304L147.484 26.0304ZM134.881 33.8614C134.152 33.8614 133.137 33.4977 133.137 32.5974C133.137 31.4487 134.402 31.0084 135.493 31.0084C136.471 31.0084 136.93 31.219 137.524 31.5065C137.351 32.8848 136.164 33.8614 134.881 33.8614ZM135.149 25.7048C133.54 25.7048 131.874 26.4134 131.184 27.9835L133.156 28.8065C133.578 27.9835 134.363 27.7151 135.187 27.7151C136.336 27.7151 137.505 28.4047 137.524 29.6301V29.7831C137.121 29.5533 136.26 29.2088 135.206 29.2088C133.08 29.2088 130.915 30.3764 130.915 32.5592C130.915 34.5505 132.659 35.8335 134.612 35.8335C136.107 35.8335 136.93 35.1633 137.448 34.3785H137.524V35.527H139.669V29.8212C139.669 27.1794 137.697 25.7048 135.149 25.7048ZM121.415 27.842H118.254V22.7408H121.415C123.076 22.7408 124.019 24.1158 124.019 25.2913C124.019 26.4446 123.076 27.842 121.415 27.842ZM121.357 20.6695H116.033V35.5517H118.254V29.9133H121.357C123.82 29.9133 126.242 28.1308 126.242 25.2913C126.242 22.452 123.82 20.6695 121.357 20.6695ZM92.3201 33.8641C90.7848 33.8641 89.4994 32.5792 89.4994 30.8145C89.4994 29.0312 90.7848 27.7268 92.3201 27.7268C93.8358 27.7268 95.0254 29.0311 95.0254 30.8145C95.0254 32.5792 93.8358 33.8641 92.3201 33.8641ZM94.8719 26.8637H94.7951C94.2964 26.2693 93.3366 25.7323 92.128 25.7323C89.5952 25.7323 87.2738 27.9569 87.2738 30.8145C87.2738 33.653 89.5952 35.8586 92.128 35.8586C93.3366 35.8586 94.2964 35.3214 94.7951 34.7081H94.8719V35.4368C94.8719 37.3741 93.8358 38.4097 92.1666 38.4097C90.8043 38.4097 89.96 37.4313 89.6143 36.6068L87.6767 37.4122C88.2331 38.7547 89.7106 40.4042 92.1666 40.4042C94.776 40.4042 96.9826 38.8696 96.9826 35.1299V26.0392H94.8719V26.8637ZM98.5174 35.5517H100.743V20.669H98.5174V35.5517ZM104.024 30.642C103.967 28.6856 105.54 27.6886 106.672 27.6886C107.555 27.6886 108.303 28.1294 108.552 28.7629L104.024 30.642ZM110.932 28.9544C110.51 27.8225 109.224 25.7323 106.595 25.7323C103.986 25.7323 101.818 27.7844 101.818 30.7954C101.818 33.634 103.967 35.8586 106.844 35.8586C109.167 35.8586 110.51 34.4393 111.066 33.6148L109.339 32.4638C108.764 33.3079 107.977 33.8641 106.844 33.8641C105.713 33.8641 104.907 33.3461 104.388 32.3299L111.161 29.5296L110.932 28.9544ZM56.9703 27.2858V29.4338H62.1123C61.9588 30.642 61.5559 31.5241 60.9418 32.1379C60.1938 32.8861 59.0233 33.7106 56.9702 33.7106C53.8043 33.7106 51.3293 31.1599 51.3293 27.9954C51.3293 24.831 53.8043 22.28 56.9703 22.28C58.678 22.28 59.9249 22.9514 60.846 23.8144L62.3617 22.2995C61.0763 21.0717 59.3685 20.132 56.9703 20.132C52.6338 20.132 48.9883 23.661 48.9883 27.9954C48.9883 32.3299 52.6338 35.8586 56.9703 35.8586C59.3113 35.8586 61.0763 35.0918 62.4576 33.653C63.8775 32.2337 64.319 30.2393 64.319 28.6284C64.319 28.1294 64.2808 27.6695 64.2036 27.2858H56.9703ZM70.165 33.8641C68.6298 33.8641 67.3057 32.5982 67.3057 30.7954C67.3057 28.9734 68.6298 27.7268 70.165 27.7268C71.6998 27.7268 73.0238 28.9734 73.0238 30.7954C73.0238 32.5983 71.6998 33.8641 70.165 33.8641ZM70.165 25.7323C67.3634 25.7323 65.08 27.861 65.08 30.7954C65.08 33.7106 67.3634 35.8586 70.165 35.8586C72.9661 35.8586 75.2495 33.7106 75.2495 30.7954C75.2495 27.861 72.9661 25.7323 70.165 25.7323ZM81.2569 33.8641C79.7222 33.8641 78.3981 32.5982 78.3981 30.7954C78.3981 28.9734 79.7222 27.7268 81.2569 27.7268C82.7917 27.7268 84.1157 28.9734 84.1157 30.7954C84.1157 32.5983 82.7917 33.8641 81.2569 33.8641ZM81.2569 25.7323C78.4554 25.7323 76.1725 27.861 76.1725 30.7954C76.1725 33.7106 78.4554 35.8586 81.2569 35.8586C84.0581 35.8586 86.3415 33.7106 86.3415 30.7954C86.3415 27.861 84.0581 25.7323 81.2569 25.7323Z" fill="white"/>
<path d="M12.6241 8.89884C12.2244 9.25928 11.9858 9.86048 11.9858 10.6585V10.4781V36.8124V36.6389C11.9858 37.3759 12.1905 37.9451 12.537 38.3116L12.6255 38.3962V38.3966C12.906 38.6496 13.2657 38.784 13.6779 38.7835C14.0807 38.7835 14.5339 38.6552 15.0121 38.3842L32.2995 28.5661L38.2376 25.1933C38.9918 24.765 39.4151 24.2126 39.4859 23.6498V23.6475C39.4151 23.0835 38.9918 22.5315 38.2376 22.1032L32.299 18.7308L15.0122 8.91275C14.5329 8.64122 14.0794 8.51239 13.6755 8.51239C13.2638 8.51239 12.9046 8.64631 12.6242 8.89884H12.6241Z" fill="#00C1FF"/>
<path d="M12.6255 38.3962L12.537 38.3116C12.1905 37.9451 11.9858 37.3759 11.9858 36.6389V36.8124V10.4846V10.6585C11.9858 9.86048 12.2244 9.25928 12.6241 8.89883L27.3802 23.648L12.6255 38.3962Z" fill="url(#paint0_linear_101_259)"/>
<path d="M32.2992 28.566L27.3799 23.648L32.2988 18.7308L38.2374 22.1031C38.9915 22.5315 39.4149 23.0835 39.4856 23.6475V23.6498C39.4149 24.2125 38.9915 24.765 38.2374 25.1932L32.2993 28.566" fill="url(#paint1_linear_101_259)"/>
<path d="M13.6778 38.7836C13.2656 38.7839 12.9059 38.6495 12.6255 38.3966V38.3962L27.3801 23.648L32.2994 28.566L15.012 38.3841C14.5338 38.6552 14.0806 38.7836 13.6778 38.7836Z" fill="url(#paint2_linear_101_259)"/>
<path d="M27.3801 23.6481L12.624 8.89889C12.9045 8.64636 13.2637 8.51244 13.6754 8.51244C14.0793 8.51244 14.5328 8.64122 15.0121 8.9128L32.299 18.7309L27.3801 23.6481" fill="url(#paint3_linear_101_259)"/>
<path d="M13.6784 38.9579C13.2662 38.9579 12.906 38.8235 12.6255 38.5706L12.625 38.571C12.6239 38.5699 12.6226 38.5688 12.6213 38.5678L12.5446 38.4929C12.5422 38.4906 12.54 38.4878 12.5371 38.4851L12.6256 38.3967C12.9061 38.6496 13.2657 38.784 13.678 38.7835C14.0807 38.7835 14.5339 38.6552 15.0122 38.3841L32.2995 28.5661L32.4103 28.6768L32.2981 28.7405L15.0121 38.558C14.5762 38.805 14.1617 38.9338 13.7872 38.9552C13.7509 38.957 13.7146 38.9579 13.6784 38.9579Z" fill="url(#paint4_linear_101_259)"/>
<path d="M12.537 38.485C12.1905 38.1186 11.9858 37.5498 11.9858 36.8124V36.6389C11.9858 37.3759 12.1905 37.945 12.537 38.3116L12.6255 38.3962L12.537 38.485Z" fill="url(#paint5_linear_101_259)"/>
<path d="M32.4101 28.6768L32.2993 28.566L38.2374 25.1932C38.9916 24.7651 39.4149 24.2126 39.4857 23.6498C39.4857 23.8563 39.4396 24.0628 39.348 24.2638C39.1633 24.6688 38.793 25.0515 38.2375 25.3672L32.4101 28.6768" fill="url(#paint6_linear_101_259)"/>
<path d="M39.4857 23.6476C39.4149 23.0835 38.9916 22.5315 38.2375 22.1032L32.2988 18.7308L32.4096 18.6201H32.4101L38.2375 21.9297C39.0689 22.4022 39.4852 23.0248 39.4857 23.6476Z" fill="url(#paint7_linear_101_259)"/>
<path d="M11.9858 10.6585V10.4766C11.9858 10.411 11.9876 10.3469 11.991 10.2846V10.2817C11.991 10.2809 11.991 10.28 11.9913 10.279V10.272C12.0272 9.63721 12.2244 9.14205 12.537 8.8114L12.6241 8.89877C12.2244 9.25927 11.9858 9.86047 11.9858 10.6585Z" fill="url(#paint8_linear_101_259)"/>
<path d="M32.2991 18.7309L15.0122 8.91273C14.5329 8.6412 14.0794 8.51243 13.6756 8.51243C13.2638 8.51243 12.9046 8.64634 12.6242 8.89887L12.5371 8.81145C12.5643 8.78268 12.5926 8.75493 12.6218 8.72825C12.6227 8.72729 12.6242 8.72633 12.6251 8.72542C12.9033 8.47481 13.2587 8.3409 13.6668 8.33849H13.6756C14.0794 8.33849 14.5329 8.46732 15.0122 8.73895L32.4103 18.6198L32.4098 18.6201L32.2991 18.7309Z" fill="url(#paint9_linear_101_259)"/>
</g>
<defs>
<linearGradient id="paint0_linear_101_259" x1="21.4159" y1="10.2064" x2="8.72563" y2="22.9432" gradientUnits="userSpaceOnUse">
<stop stop-color="#00A0FF"/>
<stop offset="0.00657" stop-color="#00A1FF"/>
<stop offset="0.2601" stop-color="#00BEFF"/>
<stop offset="0.5122" stop-color="#00D2FF"/>
<stop offset="0.7604" stop-color="#00DFFF"/>
<stop offset="1" stop-color="#00E3FF"/>
</linearGradient>
<linearGradient id="paint1_linear_101_259" x1="40.4045" y1="23.563" x2="11.5862" y2="23.563" gradientUnits="userSpaceOnUse">
<stop stop-color="#FFE000"/>
<stop offset="0.4087" stop-color="#FFBD00"/>
<stop offset="0.7754" stop-color="#FFA500"/>
<stop offset="1" stop-color="#FF9C00"/>
</linearGradient>
<linearGradient id="paint2_linear_101_259" x1="29.6877" y1="28.3239" x2="8.18284" y2="49.75" gradientUnits="userSpaceOnUse">
<stop stop-color="#FF3A44"/>
<stop offset="1" stop-color="#C31162"/>
</linearGradient>
<linearGradient id="paint3_linear_101_259" x1="8.82096" y1="6.71225" x2="18.4052" y2="16.2761" gradientUnits="userSpaceOnUse">
<stop stop-color="#32A071"/>
<stop offset="0.0685" stop-color="#2DA771"/>
<stop offset="0.4762" stop-color="#15CF74"/>
<stop offset="0.8009" stop-color="#06E775"/>
<stop offset="1" stop-color="#00F076"/>
</linearGradient>
<linearGradient id="paint4_linear_101_259" x1="29.6771" y1="31.7353" x2="12.4552" y2="49.0206" gradientUnits="userSpaceOnUse">
<stop stop-color="#CC2E36"/>
<stop offset="1" stop-color="#9C0E4E"/>
</linearGradient>
<linearGradient id="paint5_linear_101_259" x1="13.9516" y1="10.2063" x2="2.77166" y2="21.4275" gradientUnits="userSpaceOnUse">
<stop stop-color="#008DE0"/>
<stop offset="0.00657" stop-color="#008DE0"/>
<stop offset="0.2601" stop-color="#00A7E0"/>
<stop offset="0.5122" stop-color="#00B8E0"/>
<stop offset="0.7604" stop-color="#00C4E0"/>
<stop offset="1" stop-color="#00C7E0"/>
</linearGradient>
<linearGradient id="paint6_linear_101_259" x1="40.4046" y1="23.6487" x2="11.5863" y2="23.6487" gradientUnits="userSpaceOnUse">
<stop stop-color="#E0C500"/>
<stop offset="0.4087" stop-color="#E0A600"/>
<stop offset="0.7754" stop-color="#E09100"/>
<stop offset="1" stop-color="#E08900"/>
</linearGradient>
<linearGradient id="paint7_linear_101_259" x1="40.4046" y1="23.6488" x2="11.5864" y2="23.6488" gradientUnits="userSpaceOnUse">
<stop stop-color="#FFE840"/>
<stop offset="0.4087" stop-color="#FFCE40"/>
<stop offset="0.7754" stop-color="#FFBC40"/>
<stop offset="1" stop-color="#FFB540"/>
</linearGradient>
<linearGradient id="paint8_linear_101_259" x1="13.9394" y1="10.2266" x2="3.1702" y2="20.5671" gradientUnits="userSpaceOnUse">
<stop stop-color="#40B8FF"/>
<stop offset="0.00657" stop-color="#40B9FF"/>
<stop offset="0.2601" stop-color="#40CEFF"/>
<stop offset="0.5122" stop-color="#40DDFF"/>
<stop offset="0.7604" stop-color="#40E7FF"/>
<stop offset="1" stop-color="#40EAFF"/>
</linearGradient>
<linearGradient id="paint9_linear_101_259" x1="8.79956" y1="9.83141" x2="16.4899" y2="17.5501" gradientUnits="userSpaceOnUse">
<stop stop-color="#65B895"/>
<stop offset="0.0685" stop-color="#62BD95"/>
<stop offset="0.4762" stop-color="#50DB97"/>
<stop offset="0.8009" stop-color="#44ED98"/>
<stop offset="1" stop-color="#40F498"/>
</linearGradient>
<clipPath id="clip0_101_259">
<rect width="161" height="48" fill="white"/>
</clipPath>
</defs>
</svg>
