<svg width="210" height="67" viewBox="0 0 210 67" fill="none" xmlns="http://www.w3.org/2000/svg">
<g filter="url(#filter0_d_140_1206)">
<path d="M80.65 17.456C82.63 17.456 84.18 18.026 85.3 19.166C86.44 20.306 87.01 21.986 87.01 24.206V33.356H84.88V24.416C84.88 22.776 84.48 21.526 83.68 20.666C82.9 19.806 81.79 19.376 80.35 19.376C78.71 19.376 77.42 19.886 76.48 20.906C75.54 21.906 75.07 23.296 75.07 25.076V33.356H72.94V24.416C72.94 22.776 72.54 21.526 71.74 20.666C70.96 19.806 69.84 19.376 68.38 19.376C66.76 19.376 65.47 19.886 64.51 20.906C63.57 21.906 63.1 23.296 63.1 25.076V33.356H60.97V17.576H63.01V20.456C63.57 19.496 64.35 18.756 65.35 18.236C66.35 17.716 67.5 17.456 68.8 17.456C70.12 17.456 71.26 17.736 72.22 18.296C73.2 18.856 73.93 19.686 74.41 20.786C74.99 19.746 75.82 18.936 76.9 18.356C78 17.756 79.25 17.456 80.65 17.456ZM105.753 17.576L97.8634 35.246C97.2234 36.726 96.4834 37.776 95.6434 38.396C94.8034 39.016 93.7934 39.326 92.6134 39.326C91.8534 39.326 91.1434 39.206 90.4834 38.966C89.8234 38.726 89.2534 38.366 88.7734 37.886L89.7634 36.296C90.5634 37.096 91.5234 37.496 92.6434 37.496C93.3634 37.496 93.9734 37.296 94.4734 36.896C94.9934 36.496 95.4734 35.816 95.9134 34.856L96.6034 33.326L89.5534 17.576H91.7734L97.7134 30.986L103.653 17.576H105.753ZM114.413 12.746C113.493 12.746 112.793 12.996 112.313 13.496C111.853 13.996 111.623 14.736 111.623 15.716V17.576H116.483V19.376H111.683V33.356H109.553V19.376H106.733V17.576H109.553V15.626C109.553 14.186 109.963 13.046 110.783 12.206C111.623 11.366 112.803 10.946 114.323 10.946C114.923 10.946 115.503 11.036 116.063 11.216C116.623 11.376 117.093 11.616 117.473 11.936L116.753 13.526C116.133 13.006 115.353 12.746 114.413 12.746ZM121.763 17.576H123.893V33.356H121.763V17.576ZM122.843 14.126C122.403 14.126 122.033 13.976 121.733 13.676C121.433 13.376 121.283 13.016 121.283 12.596C121.283 12.196 121.433 11.846 121.733 11.546C122.033 11.246 122.403 11.096 122.843 11.096C123.283 11.096 123.653 11.246 123.953 11.546C124.253 11.826 124.403 12.166 124.403 12.566C124.403 13.006 124.253 13.376 123.953 13.676C123.653 13.976 123.283 14.126 122.843 14.126ZM138.157 32.396C137.757 32.756 137.257 33.036 136.657 33.236C136.077 33.416 135.467 33.506 134.827 33.506C133.347 33.506 132.207 33.106 131.407 32.306C130.607 31.506 130.207 30.376 130.207 28.916V19.376H127.387V17.576H130.207V14.126H132.337V17.576H137.137V19.376H132.337V28.796C132.337 29.736 132.567 30.456 133.027 30.956C133.507 31.436 134.187 31.676 135.067 31.676C135.507 31.676 135.927 31.606 136.327 31.466C136.747 31.326 137.107 31.126 137.407 30.866L138.157 32.396ZM150.074 17.456C152.054 17.456 153.624 18.036 154.784 19.196C155.964 20.336 156.554 22.006 156.554 24.206V33.356H154.424V24.416C154.424 22.776 154.014 21.526 153.194 20.666C152.374 19.806 151.204 19.376 149.684 19.376C147.984 19.376 146.634 19.886 145.634 20.906C144.654 21.906 144.164 23.296 144.164 25.076V33.356H142.034V17.576H144.074V20.486C144.654 19.526 145.454 18.786 146.474 18.266C147.514 17.726 148.714 17.456 150.074 17.456ZM176.136 26.126H162.936C163.056 27.766 163.686 29.096 164.826 30.116C165.966 31.116 167.406 31.616 169.146 31.616C170.126 31.616 171.026 31.446 171.846 31.106C172.666 30.746 173.376 30.226 173.976 29.546L175.176 30.926C174.476 31.766 173.596 32.406 172.536 32.846C171.496 33.286 170.346 33.506 169.086 33.506C167.466 33.506 166.026 33.166 164.766 32.486C163.526 31.786 162.556 30.826 161.856 29.606C161.156 28.386 160.806 27.006 160.806 25.466C160.806 23.926 161.136 22.546 161.796 21.326C162.476 20.106 163.396 19.156 164.556 18.476C165.736 17.796 167.056 17.456 168.516 17.456C169.976 17.456 171.286 17.796 172.446 18.476C173.606 19.156 174.516 20.106 175.176 21.326C175.836 22.526 176.166 23.906 176.166 25.466L176.136 26.126ZM168.516 19.286C166.996 19.286 165.716 19.776 164.676 20.756C163.656 21.716 163.076 22.976 162.936 24.536H174.126C173.986 22.976 173.396 21.716 172.356 20.756C171.336 19.776 170.056 19.286 168.516 19.286ZM184.731 33.506C183.451 33.506 182.221 33.326 181.041 32.966C179.881 32.586 178.971 32.116 178.311 31.556L179.271 29.876C179.931 30.396 180.761 30.826 181.761 31.166C182.761 31.486 183.801 31.646 184.881 31.646C186.321 31.646 187.381 31.426 188.061 30.986C188.761 30.526 189.111 29.886 189.111 29.066C189.111 28.486 188.921 28.036 188.541 27.716C188.161 27.376 187.681 27.126 187.101 26.966C186.521 26.786 185.751 26.616 184.791 26.456C183.511 26.216 182.481 25.976 181.701 25.736C180.921 25.476 180.251 25.046 179.691 24.446C179.151 23.846 178.881 23.016 178.881 21.956C178.881 20.636 179.431 19.556 180.531 18.716C181.631 17.876 183.161 17.456 185.121 17.456C186.141 17.456 187.161 17.596 188.181 17.876C189.201 18.136 190.041 18.486 190.701 18.926L189.771 20.636C188.471 19.736 186.921 19.286 185.121 19.286C183.761 19.286 182.731 19.526 182.031 20.006C181.351 20.486 181.011 21.116 181.011 21.896C181.011 22.496 181.201 22.976 181.581 23.336C181.981 23.696 182.471 23.966 183.051 24.146C183.631 24.306 184.431 24.476 185.451 24.656C186.711 24.896 187.721 25.136 188.481 25.376C189.241 25.616 189.891 26.026 190.431 26.606C190.971 27.186 191.241 27.986 191.241 29.006C191.241 30.386 190.661 31.486 189.501 32.306C188.361 33.106 186.771 33.506 184.731 33.506ZM199.409 33.506C198.129 33.506 196.899 33.326 195.719 32.966C194.559 32.586 193.649 32.116 192.989 31.556L193.949 29.876C194.609 30.396 195.439 30.826 196.439 31.166C197.439 31.486 198.479 31.646 199.559 31.646C200.999 31.646 202.059 31.426 202.739 30.986C203.439 30.526 203.789 29.886 203.789 29.066C203.789 28.486 203.599 28.036 203.219 27.716C202.839 27.376 202.359 27.126 201.779 26.966C201.199 26.786 200.429 26.616 199.469 26.456C198.189 26.216 197.159 25.976 196.379 25.736C195.599 25.476 194.929 25.046 194.369 24.446C193.829 23.846 193.559 23.016 193.559 21.956C193.559 20.636 194.109 19.556 195.209 18.716C196.309 17.876 197.839 17.456 199.799 17.456C200.819 17.456 201.839 17.596 202.859 17.876C203.879 18.136 204.719 18.486 205.379 18.926L204.449 20.636C203.149 19.736 201.599 19.286 199.799 19.286C198.439 19.286 197.409 19.526 196.709 20.006C196.029 20.486 195.689 21.116 195.689 21.896C195.689 22.496 195.879 22.976 196.259 23.336C196.659 23.696 197.149 23.966 197.729 24.146C198.309 24.306 199.109 24.476 200.129 24.656C201.389 24.896 202.399 25.136 203.159 25.376C203.919 25.616 204.569 26.026 205.109 26.606C205.649 27.186 205.919 27.986 205.919 29.006C205.919 30.386 205.339 31.486 204.179 32.306C203.039 33.106 201.449 33.506 199.409 33.506Z" fill="white"/>
<path d="M166.34 58.1C165.3 58.1 164.367 57.8733 163.54 57.42C162.727 56.9667 162.087 56.3333 161.62 55.52C161.153 54.6933 160.92 53.7667 160.92 52.74C160.92 51.7133 161.153 50.7933 161.62 49.98C162.087 49.1667 162.727 48.5333 163.54 48.08C164.367 47.6267 165.3 47.4 166.34 47.4C167.247 47.4 168.053 47.58 168.76 47.94C169.48 48.2867 170.047 48.8 170.46 49.48L169.4 50.2C169.053 49.68 168.613 49.2933 168.08 49.04C167.547 48.7733 166.967 48.64 166.34 48.64C165.58 48.64 164.893 48.8133 164.28 49.16C163.68 49.4933 163.207 49.9733 162.86 50.6C162.527 51.2267 162.36 51.94 162.36 52.74C162.36 53.5533 162.527 54.2733 162.86 54.9C163.207 55.5133 163.68 55.9933 164.28 56.34C164.893 56.6733 165.58 56.84 166.34 56.84C166.967 56.84 167.547 56.7133 168.08 56.46C168.613 56.2067 169.053 55.82 169.4 55.3L170.46 56.02C170.047 56.7 169.48 57.22 168.76 57.58C168.04 57.9267 167.233 58.1 166.34 58.1ZM173.093 43.16H174.513V58H173.093V43.16ZM187.944 47.48V58H186.584V56.08C186.211 56.72 185.698 57.22 185.044 57.58C184.391 57.9267 183.644 58.1 182.804 58.1C181.431 58.1 180.344 57.72 179.544 56.96C178.758 56.1867 178.364 55.06 178.364 53.58V47.48H179.784V53.44C179.784 54.5467 180.058 55.3867 180.604 55.96C181.151 56.5333 181.931 56.82 182.944 56.82C184.051 56.82 184.924 56.4867 185.564 55.82C186.204 55.14 186.524 54.2 186.524 53V47.48H187.944ZM197.341 47.4C198.328 47.4 199.221 47.6267 200.021 48.08C200.821 48.52 201.448 49.1467 201.901 49.96C202.355 50.7733 202.581 51.7 202.581 52.74C202.581 53.78 202.355 54.7067 201.901 55.52C201.448 56.3333 200.821 56.9667 200.021 57.42C199.221 57.8733 198.328 58.1 197.341 58.1C196.461 58.1 195.668 57.9133 194.961 57.54C194.268 57.1667 193.708 56.6267 193.281 55.92V58H191.921V43.16H193.341V49.48C193.781 48.8 194.341 48.2867 195.021 47.94C195.715 47.58 196.488 47.4 197.341 47.4ZM197.241 56.84C197.975 56.84 198.641 56.6733 199.241 56.34C199.841 55.9933 200.308 55.5067 200.641 54.88C200.988 54.2533 201.161 53.54 201.161 52.74C201.161 51.94 200.988 51.2267 200.641 50.6C200.308 49.9733 199.841 49.4933 199.241 49.16C198.641 48.8133 197.975 48.64 197.241 48.64C196.495 48.64 195.821 48.8133 195.221 49.16C194.635 49.4933 194.168 49.9733 193.821 50.6C193.488 51.2267 193.321 51.94 193.321 52.74C193.321 53.54 193.488 54.2533 193.821 54.88C194.168 55.5067 194.635 55.9933 195.221 56.34C195.821 56.6733 196.495 56.84 197.241 56.84Z" fill="#A5BC52"/>
<path d="M9.23825 8.80664L5 12.5975V12.6552H9.3056V8.80664H9.23825Z" fill="#6CB2AA"/>
<path d="M10.2725 22.3585V8.80664H14.2702L22.6457 18.0288L18.9318 22.3585" fill="#6CB2AA"/>
<path d="M19.8315 22.3585L35.4231 4.50586H37.1165V22.3585" fill="#6CB2AA"/>
<path d="M37.7129 22.3584V3H57.0376" fill="#6CB2AA"/>
<path d="M29.7847 43.1263L11.0854 23.3013H37.2125" fill="#6CB2AA"/>
<path d="M28.4668 48.923L37.2127 25.6631V53.4402" fill="#6CB2AA"/>
<path d="M50.2598 11.5151L55.9076 5.84326L58.0002 6.68995" fill="#6CB2AA"/>
</g>
<defs>
<filter id="filter0_d_140_1206" x="-4" y="0.187012" width="215" height="72.813" filterUnits="userSpaceOnUse" color-interpolation-filters="sRGB">
<feFlood flood-opacity="0" result="BackgroundImageFix"/>
<feColorMatrix in="SourceAlpha" type="matrix" values="0 0 0 0 0 0 0 0 0 0 0 0 0 0 0 0 0 0 127 0" result="hardAlpha"/>
<feOffset dy="4"/>
<feGaussianBlur stdDeviation="2"/>
<feComposite in2="hardAlpha" operator="out"/>
<feColorMatrix type="matrix" values="0 0 0 0 0 0 0 0 0 0 0 0 0 0 0 0 0 0 0.25 0"/>
<feBlend mode="normal" in2="BackgroundImageFix" result="effect1_dropShadow_140_1206"/>
<feBlend mode="normal" in="SourceGraphic" in2="effect1_dropShadow_140_1206" result="shape"/>
</filter>
</defs>
</svg>
