<svg width="363" height="230" viewBox="0 0 363 230" fill="none" xmlns="http://www.w3.org/2000/svg">
<rect width="363" height="230" rx="15" fill="url(#paint0_linear_101_176)"/>
<path d="M269.924 26.042L263.658 30.1157V30.1778H270.024V26.042H269.924Z" fill="#6CB2AA"/>
<path d="M271.453 40.6051V26.042H277.364L289.748 35.9524L284.256 40.6051" fill="#6CB2AA"/>
<path d="M285.587 40.6051L308.64 21.4203H311.144V40.6051" fill="#6CB2AA"/>
<path d="M312.025 40.6052V19.8022H340.598" fill="#6CB2AA"/>
<path d="M300.304 62.9228L272.656 41.6184H311.286" fill="#6CB2AA"/>
<path d="M298.354 69.1525L311.286 44.1569V74.0068" fill="#6CB2AA"/>
<path d="M330.576 28.9526L338.926 22.8575L342.02 23.7674" fill="#6CB2AA"/>
<path d="M36.85 42L36.825 29.25L30.5 39.875H29.35L23.025 29.325V42H20.625V24.5H22.675L29.975 36.8L37.175 24.5H39.225L39.25 42H36.85ZM55.877 28.75L49.452 43.325C48.8853 44.675 48.2186 45.625 47.452 46.175C46.702 46.725 45.7936 47 44.727 47C44.077 47 43.4436 46.8917 42.827 46.675C42.227 46.475 41.727 46.175 41.327 45.775L42.352 43.975C43.0353 44.625 43.827 44.95 44.727 44.95C45.3103 44.95 45.7936 44.7917 46.177 44.475C46.577 44.175 46.9353 43.65 47.252 42.9L47.677 41.975L41.827 28.75H44.327L48.952 39.35L53.527 28.75H55.877ZM60.9668 26.675V32.775H69.7418V34.925H60.9668V42H58.4668V24.5H70.8168V26.675H60.9668ZM73.7418 28.75H76.1418V42H73.7418V28.75ZM74.9418 26.2C74.4751 26.2 74.0835 26.05 73.7668 25.75C73.4668 25.45 73.3168 25.0833 73.3168 24.65C73.3168 24.2167 73.4668 23.85 73.7668 23.55C74.0835 23.2333 74.4751 23.075 74.9418 23.075C75.4085 23.075 75.7918 23.225 76.0918 23.525C76.4085 23.8083 76.5668 24.1667 76.5668 24.6C76.5668 25.05 76.4085 25.4333 76.0918 25.75C75.7918 26.05 75.4085 26.2 74.9418 26.2ZM88.1742 41.225C87.8242 41.525 87.3909 41.7583 86.8742 41.925C86.3576 42.075 85.8242 42.15 85.2742 42.15C83.9409 42.15 82.9076 41.7917 82.1742 41.075C81.4409 40.3583 81.0742 39.3333 81.0742 38V30.725H78.8242V28.75H81.0742V25.85H83.4742V28.75H87.2742V30.725H83.4742V37.9C83.4742 38.6167 83.6492 39.1667 83.9992 39.55C84.3659 39.9333 84.8826 40.125 85.5492 40.125C86.2826 40.125 86.9076 39.9167 87.4242 39.5L88.1742 41.225ZM98.1508 28.625C99.8341 28.625 101.167 29.1167 102.151 30.1C103.151 31.0667 103.651 32.4917 103.651 34.375V42H101.251V34.65C101.251 33.3667 100.942 32.4 100.326 31.75C99.7091 31.1 98.8258 30.775 97.6758 30.775C96.3758 30.775 95.3508 31.1583 94.6008 31.925C93.8508 32.675 93.4758 33.7583 93.4758 35.175V42H91.0758V28.75H93.3758V30.75C93.8591 30.0667 94.5091 29.5417 95.3258 29.175C96.1591 28.8083 97.1008 28.625 98.1508 28.625ZM120.141 35.45C120.141 35.6333 120.124 35.875 120.091 36.175H109.341C109.491 37.3417 109.999 38.2833 110.866 39C111.749 39.7 112.841 40.05 114.141 40.05C115.724 40.05 116.999 39.5167 117.966 38.45L119.291 40C118.691 40.7 117.941 41.2333 117.041 41.6C116.157 41.9667 115.166 42.15 114.066 42.15C112.666 42.15 111.424 41.8667 110.341 41.3C109.257 40.7167 108.416 39.9083 107.816 38.875C107.232 37.8417 106.941 36.675 106.941 35.375C106.941 34.0917 107.224 32.9333 107.791 31.9C108.374 30.8667 109.166 30.0667 110.166 29.5C111.182 28.9167 112.324 28.625 113.591 28.625C114.857 28.625 115.982 28.9167 116.966 29.5C117.966 30.0667 118.741 30.8667 119.291 31.9C119.857 32.9333 120.141 34.1167 120.141 35.45ZM113.591 30.65C112.441 30.65 111.474 31 110.691 31.7C109.924 32.4 109.474 33.3167 109.341 34.45H117.841C117.707 33.3333 117.249 32.425 116.466 31.725C115.699 31.0083 114.741 30.65 113.591 30.65ZM127.273 42.15C126.19 42.15 125.148 42.0083 124.148 41.725C123.148 41.425 122.365 41.05 121.798 40.6L122.798 38.7C123.382 39.1167 124.09 39.45 124.923 39.7C125.757 39.95 126.598 40.075 127.448 40.075C129.548 40.075 130.598 39.475 130.598 38.275C130.598 37.875 130.457 37.5583 130.173 37.325C129.89 37.0917 129.532 36.925 129.098 36.825C128.682 36.7083 128.082 36.5833 127.298 36.45C126.232 36.2833 125.357 36.0917 124.673 35.875C124.007 35.6583 123.432 35.2917 122.948 34.775C122.465 34.2583 122.223 33.5333 122.223 32.6C122.223 31.4 122.723 30.4417 123.723 29.725C124.723 28.9917 126.065 28.625 127.748 28.625C128.632 28.625 129.515 28.7333 130.398 28.95C131.282 29.1667 132.007 29.4583 132.573 29.825L131.548 31.725C130.465 31.025 129.19 30.675 127.723 30.675C126.707 30.675 125.932 30.8417 125.398 31.175C124.865 31.5083 124.598 31.95 124.598 32.5C124.598 32.9333 124.748 33.275 125.048 33.525C125.348 33.775 125.715 33.9583 126.148 34.075C126.598 34.1917 127.223 34.325 128.023 34.475C129.09 34.6583 129.948 34.8583 130.598 35.075C131.265 35.275 131.832 35.625 132.298 36.125C132.765 36.625 132.998 37.325 132.998 38.225C132.998 39.425 132.482 40.3833 131.448 41.1C130.432 41.8 129.04 42.15 127.273 42.15ZM139.798 42.15C138.714 42.15 137.673 42.0083 136.673 41.725C135.673 41.425 134.889 41.05 134.323 40.6L135.323 38.7C135.906 39.1167 136.614 39.45 137.448 39.7C138.281 39.95 139.123 40.075 139.973 40.075C142.073 40.075 143.123 39.475 143.123 38.275C143.123 37.875 142.981 37.5583 142.698 37.325C142.414 37.0917 142.056 36.925 141.623 36.825C141.206 36.7083 140.606 36.5833 139.823 36.45C138.756 36.2833 137.881 36.0917 137.198 35.875C136.531 35.6583 135.956 35.2917 135.473 34.775C134.989 34.2583 134.748 33.5333 134.748 32.6C134.748 31.4 135.248 30.4417 136.248 29.725C137.248 28.9917 138.589 28.625 140.273 28.625C141.156 28.625 142.039 28.7333 142.923 28.95C143.806 29.1667 144.531 29.4583 145.098 29.825L144.073 31.725C142.989 31.025 141.714 30.675 140.248 30.675C139.231 30.675 138.456 30.8417 137.923 31.175C137.389 31.5083 137.123 31.95 137.123 32.5C137.123 32.9333 137.273 33.275 137.573 33.525C137.873 33.775 138.239 33.9583 138.673 34.075C139.123 34.1917 139.748 34.325 140.548 34.475C141.614 34.6583 142.473 34.8583 143.123 35.075C143.789 35.275 144.356 35.625 144.823 36.125C145.289 36.625 145.523 37.325 145.523 38.225C145.523 39.425 145.006 40.3833 143.973 41.1C142.956 41.8 141.564 42.15 139.798 42.15Z" fill="white"/>
<path d="M21.15 106H30C32.22 106 34.19 106.44 35.91 107.32C37.63 108.2 38.96 109.44 39.9 111.04C40.86 112.62 41.34 114.44 41.34 116.5C41.34 118.56 40.86 120.39 39.9 121.99C38.96 123.57 37.63 124.8 35.91 125.68C34.19 126.56 32.22 127 30 127H21.15V106ZM29.82 124.39C31.52 124.39 33.01 124.06 34.29 123.4C35.59 122.74 36.59 121.82 37.29 120.64C37.99 119.44 38.34 118.06 38.34 116.5C38.34 114.94 37.99 113.57 37.29 112.39C36.59 111.19 35.59 110.26 34.29 109.6C33.01 108.94 31.52 108.61 29.82 108.61H24.15V124.39H29.82ZM45.5152 111.1H48.3952V127H45.5152V111.1ZM46.9552 108.04C46.3952 108.04 45.9252 107.86 45.5452 107.5C45.1852 107.14 45.0052 106.7 45.0052 106.18C45.0052 105.66 45.1852 105.22 45.5452 104.86C45.9252 104.48 46.3952 104.29 46.9552 104.29C47.5152 104.29 47.9752 104.47 48.3352 104.83C48.7152 105.17 48.9052 105.6 48.9052 106.12C48.9052 106.66 48.7152 107.12 48.3352 107.5C47.9752 107.86 47.5152 108.04 46.9552 108.04ZM59.6841 110.95C61.8841 110.95 63.5641 111.49 64.7241 112.57C65.9041 113.65 66.4941 115.26 66.4941 117.4V127H63.7641V124.9C63.2841 125.64 62.5941 126.21 61.6941 126.61C60.8141 126.99 59.7641 127.18 58.5441 127.18C56.7641 127.18 55.3341 126.75 54.2541 125.89C53.1941 125.03 52.6641 123.9 52.6641 122.5C52.6641 121.1 53.1741 119.98 54.1941 119.14C55.2141 118.28 56.8341 117.85 59.0541 117.85H63.6141V117.28C63.6141 116.04 63.2541 115.09 62.5341 114.43C61.8141 113.77 60.7541 113.44 59.3541 113.44C58.4141 113.44 57.4941 113.6 56.5941 113.92C55.6941 114.22 54.9341 114.63 54.3141 115.15L53.1141 112.99C53.9341 112.33 54.9141 111.83 56.0541 111.49C57.1941 111.13 58.4041 110.95 59.6841 110.95ZM59.0241 124.96C60.1241 124.96 61.0741 124.72 61.8741 124.24C62.6741 123.74 63.2541 123.04 63.6141 122.14V119.92H59.1741C56.7341 119.92 55.5141 120.74 55.5141 122.38C55.5141 123.18 55.8241 123.81 56.4441 124.27C57.0641 124.73 57.9241 124.96 59.0241 124.96ZM91.7138 110.95C93.7138 110.95 95.2938 111.53 96.4538 112.69C97.6338 113.85 98.2238 115.57 98.2238 117.85V127H95.3438V118.18C95.3438 116.64 94.9838 115.48 94.2638 114.7C93.5638 113.92 92.5538 113.53 91.2338 113.53C89.7738 113.53 88.6138 113.99 87.7538 114.91C86.8938 115.81 86.4638 117.11 86.4638 118.81V127H83.5838V118.18C83.5838 116.64 83.2238 115.48 82.5038 114.7C81.8038 113.92 80.7938 113.53 79.4738 113.53C78.0138 113.53 76.8538 113.99 75.9938 114.91C75.1338 115.81 74.7038 117.11 74.7038 118.81V127H71.8238V111.1H74.5838V113.47C75.1638 112.65 75.9238 112.03 76.8638 111.61C77.8038 111.17 78.8738 110.95 80.0738 110.95C81.3138 110.95 82.4138 111.2 83.3738 111.7C84.3338 112.2 85.0738 112.93 85.5938 113.89C86.1938 112.97 87.0238 112.25 88.0838 111.73C89.1638 111.21 90.3738 110.95 91.7138 110.95ZM110.421 127.18C108.841 127.18 107.421 126.83 106.161 126.13C104.901 125.43 103.911 124.47 103.191 123.25C102.491 122.01 102.141 120.61 102.141 119.05C102.141 117.49 102.491 116.1 103.191 114.88C103.911 113.64 104.901 112.68 106.161 112C107.421 111.3 108.841 110.95 110.421 110.95C112.001 110.95 113.411 111.3 114.651 112C115.911 112.68 116.891 113.64 117.591 114.88C118.311 116.1 118.671 117.49 118.671 119.05C118.671 120.61 118.311 122.01 117.591 123.25C116.891 124.47 115.911 125.43 114.651 126.13C113.411 126.83 112.001 127.18 110.421 127.18ZM110.421 124.66C111.441 124.66 112.351 124.43 113.151 123.97C113.971 123.49 114.611 122.83 115.071 121.99C115.531 121.13 115.761 120.15 115.761 119.05C115.761 117.95 115.531 116.98 115.071 116.14C114.611 115.28 113.971 114.62 113.151 114.16C112.351 113.7 111.441 113.47 110.421 113.47C109.401 113.47 108.481 113.7 107.661 114.16C106.861 114.62 106.221 115.28 105.741 116.14C105.281 116.98 105.051 117.95 105.051 119.05C105.051 120.15 105.281 121.13 105.741 121.99C106.221 122.83 106.861 123.49 107.661 123.97C108.481 124.43 109.401 124.66 110.421 124.66ZM131.144 110.95C133.164 110.95 134.764 111.54 135.944 112.72C137.144 113.88 137.744 115.59 137.744 117.85V127H134.864V118.18C134.864 116.64 134.494 115.48 133.754 114.7C133.014 113.92 131.954 113.53 130.574 113.53C129.014 113.53 127.784 113.99 126.884 114.91C125.984 115.81 125.534 117.11 125.534 118.81V127H122.654V111.1H125.414V113.5C125.994 112.68 126.774 112.05 127.754 111.61C128.754 111.17 129.884 110.95 131.144 110.95ZM158.162 104.74V127H155.402V124.48C154.762 125.36 153.952 126.03 152.972 126.49C151.992 126.95 150.912 127.18 149.732 127.18C148.192 127.18 146.812 126.84 145.592 126.16C144.372 125.48 143.412 124.53 142.712 123.31C142.032 122.07 141.692 120.65 141.692 119.05C141.692 117.45 142.032 116.04 142.712 114.82C143.412 113.6 144.372 112.65 145.592 111.97C146.812 111.29 148.192 110.95 149.732 110.95C150.872 110.95 151.922 111.17 152.882 111.61C153.842 112.03 154.642 112.66 155.282 113.5V104.74H158.162ZM149.972 124.66C150.972 124.66 151.882 124.43 152.702 123.97C153.522 123.49 154.162 122.83 154.622 121.99C155.082 121.13 155.312 120.15 155.312 119.05C155.312 117.95 155.082 116.98 154.622 116.14C154.162 115.28 153.522 114.62 152.702 114.16C151.882 113.7 150.972 113.47 149.972 113.47C148.952 113.47 148.032 113.7 147.212 114.16C146.412 114.62 145.772 115.28 145.292 116.14C144.832 116.98 144.602 117.95 144.602 119.05C144.602 120.15 144.832 121.13 145.292 121.99C145.772 122.83 146.412 123.49 147.212 123.97C148.032 124.43 148.952 124.66 149.972 124.66Z" fill="white"/>
<path d="M39.21 186V207H36.75L24.15 191.34V207H21.15V186H23.61L36.21 201.66V186H39.21ZM58.8757 201.75H47.7157L45.4057 207H42.3157L51.8257 186H54.7957L64.3357 207H61.1857L58.8757 201.75ZM57.8257 199.35L53.2957 189.06L48.7657 199.35H57.8257ZM86.9384 207L86.9084 191.7L79.3184 204.45H77.9384L70.3484 191.79V207H67.4684V186H69.9284L78.6884 200.76L87.3284 186H89.7884L89.8184 207H86.9384ZM111.361 204.39V207H96.1207V186H110.941V188.61H99.1207V195.06H109.651V197.61H99.1207V204.39H111.361Z" fill="white"/>
<path d="M189.35 127.2C187.967 127.2 186.733 126.85 185.65 126.15C184.583 125.433 183.742 124.4 183.125 123.05C182.508 121.7 182.2 120.1 182.2 118.25C182.2 116.4 182.508 114.8 183.125 113.45C183.742 112.1 184.583 111.075 185.65 110.375C186.733 109.658 187.967 109.3 189.35 109.3C190.717 109.3 191.933 109.658 193 110.375C194.083 111.075 194.933 112.1 195.55 113.45C196.167 114.8 196.475 116.4 196.475 118.25C196.475 120.1 196.167 121.7 195.55 123.05C194.933 124.4 194.083 125.433 193 126.15C191.933 126.85 190.717 127.2 189.35 127.2ZM189.35 124.975C190.75 124.975 191.867 124.4 192.7 123.25C193.55 122.1 193.975 120.433 193.975 118.25C193.975 116.067 193.55 114.4 192.7 113.25C191.867 112.1 190.75 111.525 189.35 111.525C187.933 111.525 186.8 112.1 185.95 113.25C185.117 114.4 184.7 116.067 184.7 118.25C184.7 120.433 185.117 122.1 185.95 123.25C186.8 124.4 187.933 124.975 189.35 124.975ZM209.65 127.2C208.266 127.2 207.033 126.85 205.95 126.15C204.883 125.433 204.041 124.4 203.425 123.05C202.808 121.7 202.5 120.1 202.5 118.25C202.5 116.4 202.808 114.8 203.425 113.45C204.041 112.1 204.883 111.075 205.95 110.375C207.033 109.658 208.266 109.3 209.65 109.3C211.016 109.3 212.233 109.658 213.3 110.375C214.383 111.075 215.233 112.1 215.85 113.45C216.466 114.8 216.775 116.4 216.775 118.25C216.775 120.1 216.466 121.7 215.85 123.05C215.233 124.4 214.383 125.433 213.3 126.15C212.233 126.85 211.016 127.2 209.65 127.2ZM209.65 124.975C211.05 124.975 212.166 124.4 213 123.25C213.85 122.1 214.275 120.433 214.275 118.25C214.275 116.067 213.85 114.4 213 113.25C212.166 112.1 211.05 111.525 209.65 111.525C208.233 111.525 207.1 112.1 206.25 113.25C205.416 114.4 205 116.067 205 118.25C205 120.433 205.416 122.1 206.25 123.25C207.1 124.4 208.233 124.975 209.65 124.975ZM229.95 127.2C228.566 127.2 227.333 126.85 226.25 126.15C225.183 125.433 224.341 124.4 223.725 123.05C223.108 121.7 222.8 120.1 222.8 118.25C222.8 116.4 223.108 114.8 223.725 113.45C224.341 112.1 225.183 111.075 226.25 110.375C227.333 109.658 228.566 109.3 229.95 109.3C231.316 109.3 232.533 109.658 233.6 110.375C234.683 111.075 235.533 112.1 236.15 113.45C236.766 114.8 237.075 116.4 237.075 118.25C237.075 120.1 236.766 121.7 236.15 123.05C235.533 124.4 234.683 125.433 233.6 126.15C232.533 126.85 231.316 127.2 229.95 127.2ZM229.95 124.975C231.35 124.975 232.466 124.4 233.3 123.25C234.15 122.1 234.575 120.433 234.575 118.25C234.575 116.067 234.15 114.4 233.3 113.25C232.466 112.1 231.35 111.525 229.95 111.525C228.533 111.525 227.4 112.1 226.55 113.25C225.716 114.4 225.3 116.067 225.3 118.25C225.3 120.433 225.716 122.1 226.55 123.25C227.4 124.4 228.533 124.975 229.95 124.975ZM250.249 127.2C248.866 127.2 247.633 126.85 246.549 126.15C245.483 125.433 244.641 124.4 244.024 123.05C243.408 121.7 243.099 120.1 243.099 118.25C243.099 116.4 243.408 114.8 244.024 113.45C244.641 112.1 245.483 111.075 246.549 110.375C247.633 109.658 248.866 109.3 250.249 109.3C251.616 109.3 252.833 109.658 253.899 110.375C254.983 111.075 255.833 112.1 256.449 113.45C257.066 114.8 257.374 116.4 257.374 118.25C257.374 120.1 257.066 121.7 256.449 123.05C255.833 124.4 254.983 125.433 253.899 126.15C252.833 126.85 251.616 127.2 250.249 127.2ZM250.249 124.975C251.649 124.975 252.766 124.4 253.599 123.25C254.449 122.1 254.874 120.433 254.874 118.25C254.874 116.067 254.449 114.4 253.599 113.25C252.766 112.1 251.649 111.525 250.249 111.525C248.833 111.525 247.699 112.1 246.849 113.25C246.016 114.4 245.599 116.067 245.599 118.25C245.599 120.433 246.016 122.1 246.849 123.25C247.699 124.4 248.833 124.975 250.249 124.975ZM280.888 127.2C279.505 127.2 278.271 126.85 277.188 126.15C276.121 125.433 275.28 124.4 274.663 123.05C274.046 121.7 273.738 120.1 273.738 118.25C273.738 116.4 274.046 114.8 274.663 113.45C275.28 112.1 276.121 111.075 277.188 110.375C278.271 109.658 279.505 109.3 280.888 109.3C282.255 109.3 283.471 109.658 284.538 110.375C285.621 111.075 286.471 112.1 287.088 113.45C287.705 114.8 288.013 116.4 288.013 118.25C288.013 120.1 287.705 121.7 287.088 123.05C286.471 124.4 285.621 125.433 284.538 126.15C283.471 126.85 282.255 127.2 280.888 127.2ZM280.888 124.975C282.288 124.975 283.405 124.4 284.238 123.25C285.088 122.1 285.513 120.433 285.513 118.25C285.513 116.067 285.088 114.4 284.238 113.25C283.405 112.1 282.288 111.525 280.888 111.525C279.471 111.525 278.338 112.1 277.488 113.25C276.655 114.4 276.238 116.067 276.238 118.25C276.238 120.433 276.655 122.1 277.488 123.25C278.338 124.4 279.471 124.975 280.888 124.975ZM301.188 127.2C299.805 127.2 298.571 126.85 297.488 126.15C296.421 125.433 295.58 124.4 294.963 123.05C294.346 121.7 294.038 120.1 294.038 118.25C294.038 116.4 294.346 114.8 294.963 113.45C295.58 112.1 296.421 111.075 297.488 110.375C298.571 109.658 299.805 109.3 301.188 109.3C302.555 109.3 303.771 109.658 304.838 110.375C305.921 111.075 306.771 112.1 307.388 113.45C308.005 114.8 308.313 116.4 308.313 118.25C308.313 120.1 308.005 121.7 307.388 123.05C306.771 124.4 305.921 125.433 304.838 126.15C303.771 126.85 302.555 127.2 301.188 127.2ZM301.188 124.975C302.588 124.975 303.705 124.4 304.538 123.25C305.388 122.1 305.813 120.433 305.813 118.25C305.813 116.067 305.388 114.4 304.538 113.25C303.705 112.1 302.588 111.525 301.188 111.525C299.771 111.525 298.638 112.1 297.788 113.25C296.955 114.4 296.538 116.067 296.538 118.25C296.538 120.433 296.955 122.1 297.788 123.25C298.638 124.4 299.771 124.975 301.188 124.975ZM321.488 127.2C320.104 127.2 318.871 126.85 317.788 126.15C316.721 125.433 315.879 124.4 315.263 123.05C314.646 121.7 314.338 120.1 314.338 118.25C314.338 116.4 314.646 114.8 315.263 113.45C315.879 112.1 316.721 111.075 317.788 110.375C318.871 109.658 320.104 109.3 321.488 109.3C322.854 109.3 324.071 109.658 325.138 110.375C326.221 111.075 327.071 112.1 327.688 113.45C328.304 114.8 328.613 116.4 328.613 118.25C328.613 120.1 328.304 121.7 327.688 123.05C327.071 124.4 326.221 125.433 325.138 126.15C324.071 126.85 322.854 127.2 321.488 127.2ZM321.488 124.975C322.888 124.975 324.004 124.4 324.838 123.25C325.688 122.1 326.113 120.433 326.113 118.25C326.113 116.067 325.688 114.4 324.838 113.25C324.004 112.1 322.888 111.525 321.488 111.525C320.071 111.525 318.938 112.1 318.088 113.25C317.254 114.4 316.838 116.067 316.838 118.25C316.838 120.433 317.254 122.1 318.088 123.25C318.938 124.4 320.071 124.975 321.488 124.975ZM341.788 127.2C340.404 127.2 339.171 126.85 338.088 126.15C337.021 125.433 336.179 124.4 335.563 123.05C334.946 121.7 334.638 120.1 334.638 118.25C334.638 116.4 334.946 114.8 335.563 113.45C336.179 112.1 337.021 111.075 338.088 110.375C339.171 109.658 340.404 109.3 341.788 109.3C343.154 109.3 344.371 109.658 345.438 110.375C346.521 111.075 347.371 112.1 347.988 113.45C348.604 114.8 348.913 116.4 348.913 118.25C348.913 120.1 348.604 121.7 347.988 123.05C347.371 124.4 346.521 125.433 345.438 126.15C344.371 126.85 343.154 127.2 341.788 127.2ZM341.788 124.975C343.188 124.975 344.304 124.4 345.138 123.25C345.988 122.1 346.413 120.433 346.413 118.25C346.413 116.067 345.988 114.4 345.138 113.25C344.304 112.1 343.188 111.525 341.788 111.525C340.371 111.525 339.238 112.1 338.388 113.25C337.554 114.4 337.138 116.067 337.138 118.25C337.138 120.433 337.554 122.1 338.388 123.25C339.238 124.4 340.371 124.975 341.788 124.975Z" fill="white"/>
<defs>
<linearGradient id="paint0_linear_101_176" x1="0" y1="115" x2="363" y2="115" gradientUnits="userSpaceOnUse">
<stop stop-color="#2980B9"/>
<stop offset="1" stop-color="#2C3E50"/>
</linearGradient>
</defs>
</svg>
