<svg width="363" height="230" viewBox="0 0 363 230" fill="none" xmlns="http://www.w3.org/2000/svg">
<rect width="363" height="230" rx="15" fill="url(#paint0_linear_101_127)"/>
<path d="M270.85 26.3902L264.584 30.4639V30.5259H270.95V26.3902H270.85Z" fill="#6CB2AA"/>
<path d="M272.38 40.9533V26.3902H278.291L290.674 36.3005L285.183 40.9533" fill="#6CB2AA"/>
<path d="M286.514 40.9533L309.567 21.7684H312.07V40.9533" fill="#6CB2AA"/>
<path d="M312.951 40.9534V20.1504H341.524" fill="#6CB2AA"/>
<path d="M301.23 63.271L273.582 41.9666H312.212" fill="#6CB2AA"/>
<path d="M299.28 69.5006L312.212 44.505V74.355" fill="#6CB2AA"/>
<path d="M331.502 29.3007L339.853 23.2056L342.947 24.1155" fill="#6CB2AA"/>
<path d="M41.85 40L41.825 27.25L35.5 37.875H34.35L28.025 27.325V40H25.625V22.5H27.675L34.975 34.8L42.175 22.5H44.225L44.25 40H41.85ZM60.877 26.75L54.452 41.325C53.8853 42.675 53.2186 43.625 52.452 44.175C51.702 44.725 50.7936 45 49.727 45C49.077 45 48.4436 44.8917 47.827 44.675C47.227 44.475 46.727 44.175 46.327 43.775L47.352 41.975C48.0353 42.625 48.827 42.95 49.727 42.95C50.3103 42.95 50.7936 42.7917 51.177 42.475C51.577 42.175 51.9353 41.65 52.252 40.9L52.677 39.975L46.827 26.75H49.327L53.952 37.35L58.527 26.75H60.877ZM65.9668 24.675V30.775H74.7418V32.925H65.9668V40H63.4668V22.5H75.8168V24.675H65.9668ZM78.7418 26.75H81.1418V40H78.7418V26.75ZM79.9418 24.2C79.4751 24.2 79.0835 24.05 78.7668 23.75C78.4668 23.45 78.3168 23.0833 78.3168 22.65C78.3168 22.2167 78.4668 21.85 78.7668 21.55C79.0835 21.2333 79.4751 21.075 79.9418 21.075C80.4085 21.075 80.7918 21.225 81.0918 21.525C81.4085 21.8083 81.5668 22.1667 81.5668 22.6C81.5668 23.05 81.4085 23.4333 81.0918 23.75C80.7918 24.05 80.4085 24.2 79.9418 24.2ZM93.1742 39.225C92.8242 39.525 92.3909 39.7583 91.8742 39.925C91.3576 40.075 90.8242 40.15 90.2742 40.15C88.9409 40.15 87.9076 39.7917 87.1742 39.075C86.4409 38.3583 86.0742 37.3333 86.0742 36V28.725H83.8242V26.75H86.0742V23.85H88.4742V26.75H92.2742V28.725H88.4742V35.9C88.4742 36.6167 88.6492 37.1667 88.9992 37.55C89.3659 37.9333 89.8826 38.125 90.5492 38.125C91.2826 38.125 91.9076 37.9167 92.4242 37.5L93.1742 39.225ZM103.151 26.625C104.834 26.625 106.167 27.1167 107.151 28.1C108.151 29.0667 108.651 30.4917 108.651 32.375V40H106.251V32.65C106.251 31.3667 105.942 30.4 105.326 29.75C104.709 29.1 103.826 28.775 102.676 28.775C101.376 28.775 100.351 29.1583 99.6008 29.925C98.8508 30.675 98.4758 31.7583 98.4758 33.175V40H96.0758V26.75H98.3758V28.75C98.8591 28.0667 99.5091 27.5417 100.326 27.175C101.159 26.8083 102.101 26.625 103.151 26.625ZM125.141 33.45C125.141 33.6333 125.124 33.875 125.091 34.175H114.341C114.491 35.3417 114.999 36.2833 115.866 37C116.749 37.7 117.841 38.05 119.141 38.05C120.724 38.05 121.999 37.5167 122.966 36.45L124.291 38C123.691 38.7 122.941 39.2333 122.041 39.6C121.157 39.9667 120.166 40.15 119.066 40.15C117.666 40.15 116.424 39.8667 115.341 39.3C114.257 38.7167 113.416 37.9083 112.816 36.875C112.232 35.8417 111.941 34.675 111.941 33.375C111.941 32.0917 112.224 30.9333 112.791 29.9C113.374 28.8667 114.166 28.0667 115.166 27.5C116.182 26.9167 117.324 26.625 118.591 26.625C119.857 26.625 120.982 26.9167 121.966 27.5C122.966 28.0667 123.741 28.8667 124.291 29.9C124.857 30.9333 125.141 32.1167 125.141 33.45ZM118.591 28.65C117.441 28.65 116.474 29 115.691 29.7C114.924 30.4 114.474 31.3167 114.341 32.45H122.841C122.707 31.3333 122.249 30.425 121.466 29.725C120.699 29.0083 119.741 28.65 118.591 28.65ZM132.273 40.15C131.19 40.15 130.148 40.0083 129.148 39.725C128.148 39.425 127.365 39.05 126.798 38.6L127.798 36.7C128.382 37.1167 129.09 37.45 129.923 37.7C130.757 37.95 131.598 38.075 132.448 38.075C134.548 38.075 135.598 37.475 135.598 36.275C135.598 35.875 135.457 35.5583 135.173 35.325C134.89 35.0917 134.532 34.925 134.098 34.825C133.682 34.7083 133.082 34.5833 132.298 34.45C131.232 34.2833 130.357 34.0917 129.673 33.875C129.007 33.6583 128.432 33.2917 127.948 32.775C127.465 32.2583 127.223 31.5333 127.223 30.6C127.223 29.4 127.723 28.4417 128.723 27.725C129.723 26.9917 131.065 26.625 132.748 26.625C133.632 26.625 134.515 26.7333 135.398 26.95C136.282 27.1667 137.007 27.4583 137.573 27.825L136.548 29.725C135.465 29.025 134.19 28.675 132.723 28.675C131.707 28.675 130.932 28.8417 130.398 29.175C129.865 29.5083 129.598 29.95 129.598 30.5C129.598 30.9333 129.748 31.275 130.048 31.525C130.348 31.775 130.715 31.9583 131.148 32.075C131.598 32.1917 132.223 32.325 133.023 32.475C134.09 32.6583 134.948 32.8583 135.598 33.075C136.265 33.275 136.832 33.625 137.298 34.125C137.765 34.625 137.998 35.325 137.998 36.225C137.998 37.425 137.482 38.3833 136.448 39.1C135.432 39.8 134.04 40.15 132.273 40.15ZM144.798 40.15C143.714 40.15 142.673 40.0083 141.673 39.725C140.673 39.425 139.889 39.05 139.323 38.6L140.323 36.7C140.906 37.1167 141.614 37.45 142.448 37.7C143.281 37.95 144.123 38.075 144.973 38.075C147.073 38.075 148.123 37.475 148.123 36.275C148.123 35.875 147.981 35.5583 147.698 35.325C147.414 35.0917 147.056 34.925 146.623 34.825C146.206 34.7083 145.606 34.5833 144.823 34.45C143.756 34.2833 142.881 34.0917 142.198 33.875C141.531 33.6583 140.956 33.2917 140.473 32.775C139.989 32.2583 139.748 31.5333 139.748 30.6C139.748 29.4 140.248 28.4417 141.248 27.725C142.248 26.9917 143.589 26.625 145.273 26.625C146.156 26.625 147.039 26.7333 147.923 26.95C148.806 27.1667 149.531 27.4583 150.098 27.825L149.073 29.725C147.989 29.025 146.714 28.675 145.248 28.675C144.231 28.675 143.456 28.8417 142.923 29.175C142.389 29.5083 142.123 29.95 142.123 30.5C142.123 30.9333 142.273 31.275 142.573 31.525C142.873 31.775 143.239 31.9583 143.673 32.075C144.123 32.1917 144.748 32.325 145.548 32.475C146.614 32.6583 147.473 32.8583 148.123 33.075C148.789 33.275 149.356 33.625 149.823 34.125C150.289 34.625 150.523 35.325 150.523 36.225C150.523 37.425 150.006 38.3833 148.973 39.1C147.956 39.8 146.564 40.15 144.798 40.15Z" fill="white"/>
<path d="M40.7 111.38H43.58V119.57C42.54 120.43 41.33 121.09 39.95 121.55C38.57 122.01 37.13 122.24 35.63 122.24C33.51 122.24 31.6 121.78 29.9 120.86C28.2 119.92 26.86 118.64 25.88 117.02C24.92 115.38 24.44 113.54 24.44 111.5C24.44 109.46 24.92 107.62 25.88 105.98C26.86 104.34 28.2 103.06 29.9 102.14C31.62 101.22 33.55 100.76 35.69 100.76C37.37 100.76 38.89 101.04 40.25 101.6C41.63 102.14 42.8 102.94 43.76 104L41.9 105.86C40.22 104.24 38.19 103.43 35.81 103.43C34.21 103.43 32.77 103.78 31.49 104.48C30.23 105.16 29.24 106.12 28.52 107.36C27.8 108.58 27.44 109.96 27.44 111.5C27.44 113.02 27.8 114.4 28.52 115.64C29.24 116.86 30.23 117.82 31.49 118.52C32.77 119.22 34.2 119.57 35.78 119.57C37.66 119.57 39.3 119.12 40.7 118.22V111.38ZM55.7138 122.18C54.1338 122.18 52.7138 121.83 51.4538 121.13C50.1938 120.43 49.2038 119.47 48.4838 118.25C47.7838 117.01 47.4338 115.61 47.4338 114.05C47.4338 112.49 47.7838 111.1 48.4838 109.88C49.2038 108.64 50.1938 107.68 51.4538 107C52.7138 106.3 54.1338 105.95 55.7138 105.95C57.2938 105.95 58.7038 106.3 59.9438 107C61.2038 107.68 62.1838 108.64 62.8838 109.88C63.6038 111.1 63.9638 112.49 63.9638 114.05C63.9638 115.61 63.6038 117.01 62.8838 118.25C62.1838 119.47 61.2038 120.43 59.9438 121.13C58.7038 121.83 57.2938 122.18 55.7138 122.18ZM55.7138 119.66C56.7338 119.66 57.6438 119.43 58.4438 118.97C59.2638 118.49 59.9038 117.83 60.3638 116.99C60.8238 116.13 61.0538 115.15 61.0538 114.05C61.0538 112.95 60.8238 111.98 60.3638 111.14C59.9038 110.28 59.2638 109.62 58.4438 109.16C57.6438 108.7 56.7338 108.47 55.7138 108.47C54.6938 108.47 53.7738 108.7 52.9538 109.16C52.1538 109.62 51.5138 110.28 51.0338 111.14C50.5738 111.98 50.3438 112.95 50.3438 114.05C50.3438 115.15 50.5738 116.13 51.0338 116.99C51.5138 117.83 52.1538 118.49 52.9538 118.97C53.7738 119.43 54.6938 119.66 55.7138 119.66ZM67.9468 99.74H70.8268V122H67.9468V99.74ZM91.3257 99.74V122H88.5657V119.48C87.9257 120.36 87.1157 121.03 86.1357 121.49C85.1557 121.95 84.0757 122.18 82.8957 122.18C81.3557 122.18 79.9757 121.84 78.7557 121.16C77.5357 120.48 76.5757 119.53 75.8757 118.31C75.1957 117.07 74.8557 115.65 74.8557 114.05C74.8557 112.45 75.1957 111.04 75.8757 109.82C76.5757 108.6 77.5357 107.65 78.7557 106.97C79.9757 106.29 81.3557 105.95 82.8957 105.95C84.0357 105.95 85.0857 106.17 86.0457 106.61C87.0057 107.03 87.8057 107.66 88.4457 108.5V99.74H91.3257ZM83.1357 119.66C84.1357 119.66 85.0457 119.43 85.8657 118.97C86.6857 118.49 87.3257 117.83 87.7857 116.99C88.2457 116.13 88.4757 115.15 88.4757 114.05C88.4757 112.95 88.2457 111.98 87.7857 111.14C87.3257 110.28 86.6857 109.62 85.8657 109.16C85.0457 108.7 84.1357 108.47 83.1357 108.47C82.1157 108.47 81.1957 108.7 80.3757 109.16C79.5757 109.62 78.9357 110.28 78.4557 111.14C77.9957 111.98 77.7657 112.95 77.7657 114.05C77.7657 115.15 77.9957 116.13 78.4557 116.99C78.9357 117.83 79.5757 118.49 80.3757 118.97C81.1957 119.43 82.1157 119.66 83.1357 119.66Z" fill="white"/>
<path d="M44.21 182V203H41.75L29.15 187.34V203H26.15V182H28.61L41.21 197.66V182H44.21ZM63.8757 197.75H52.7157L50.4057 203H47.3157L56.8257 182H59.7957L69.3357 203H66.1857L63.8757 197.75ZM62.8257 195.35L58.2957 185.06L53.7657 195.35H62.8257ZM91.9384 203L91.9084 187.7L84.3184 200.45H82.9384L75.3484 187.79V203H72.4684V182H74.9284L83.6884 196.76L92.3284 182H94.7884L94.8184 203H91.9384ZM116.361 200.39V203H101.121V182H115.941V184.61H104.121V191.06H114.651V193.61H104.121V200.39H116.361Z" fill="white"/>
<path d="M181.35 123.2C179.967 123.2 178.733 122.85 177.65 122.15C176.583 121.433 175.742 120.4 175.125 119.05C174.508 117.7 174.2 116.1 174.2 114.25C174.2 112.4 174.508 110.8 175.125 109.45C175.742 108.1 176.583 107.075 177.65 106.375C178.733 105.658 179.967 105.3 181.35 105.3C182.717 105.3 183.933 105.658 185 106.375C186.083 107.075 186.933 108.1 187.55 109.45C188.167 110.8 188.475 112.4 188.475 114.25C188.475 116.1 188.167 117.7 187.55 119.05C186.933 120.4 186.083 121.433 185 122.15C183.933 122.85 182.717 123.2 181.35 123.2ZM181.35 120.975C182.75 120.975 183.867 120.4 184.7 119.25C185.55 118.1 185.975 116.433 185.975 114.25C185.975 112.067 185.55 110.4 184.7 109.25C183.867 108.1 182.75 107.525 181.35 107.525C179.933 107.525 178.8 108.1 177.95 109.25C177.117 110.4 176.7 112.067 176.7 114.25C176.7 116.433 177.117 118.1 177.95 119.25C178.8 120.4 179.933 120.975 181.35 120.975ZM201.65 123.2C200.266 123.2 199.033 122.85 197.95 122.15C196.883 121.433 196.041 120.4 195.425 119.05C194.808 117.7 194.5 116.1 194.5 114.25C194.5 112.4 194.808 110.8 195.425 109.45C196.041 108.1 196.883 107.075 197.95 106.375C199.033 105.658 200.266 105.3 201.65 105.3C203.016 105.3 204.233 105.658 205.3 106.375C206.383 107.075 207.233 108.1 207.85 109.45C208.466 110.8 208.775 112.4 208.775 114.25C208.775 116.1 208.466 117.7 207.85 119.05C207.233 120.4 206.383 121.433 205.3 122.15C204.233 122.85 203.016 123.2 201.65 123.2ZM201.65 120.975C203.05 120.975 204.166 120.4 205 119.25C205.85 118.1 206.275 116.433 206.275 114.25C206.275 112.067 205.85 110.4 205 109.25C204.166 108.1 203.05 107.525 201.65 107.525C200.233 107.525 199.1 108.1 198.25 109.25C197.416 110.4 197 112.067 197 114.25C197 116.433 197.416 118.1 198.25 119.25C199.1 120.4 200.233 120.975 201.65 120.975ZM221.95 123.2C220.566 123.2 219.333 122.85 218.25 122.15C217.183 121.433 216.341 120.4 215.725 119.05C215.108 117.7 214.8 116.1 214.8 114.25C214.8 112.4 215.108 110.8 215.725 109.45C216.341 108.1 217.183 107.075 218.25 106.375C219.333 105.658 220.566 105.3 221.95 105.3C223.316 105.3 224.533 105.658 225.6 106.375C226.683 107.075 227.533 108.1 228.15 109.45C228.766 110.8 229.075 112.4 229.075 114.25C229.075 116.1 228.766 117.7 228.15 119.05C227.533 120.4 226.683 121.433 225.6 122.15C224.533 122.85 223.316 123.2 221.95 123.2ZM221.95 120.975C223.35 120.975 224.466 120.4 225.3 119.25C226.15 118.1 226.575 116.433 226.575 114.25C226.575 112.067 226.15 110.4 225.3 109.25C224.466 108.1 223.35 107.525 221.95 107.525C220.533 107.525 219.4 108.1 218.55 109.25C217.716 110.4 217.3 112.067 217.3 114.25C217.3 116.433 217.716 118.1 218.55 119.25C219.4 120.4 220.533 120.975 221.95 120.975ZM242.249 123.2C240.866 123.2 239.633 122.85 238.549 122.15C237.483 121.433 236.641 120.4 236.024 119.05C235.408 117.7 235.099 116.1 235.099 114.25C235.099 112.4 235.408 110.8 236.024 109.45C236.641 108.1 237.483 107.075 238.549 106.375C239.633 105.658 240.866 105.3 242.249 105.3C243.616 105.3 244.833 105.658 245.899 106.375C246.983 107.075 247.833 108.1 248.449 109.45C249.066 110.8 249.374 112.4 249.374 114.25C249.374 116.1 249.066 117.7 248.449 119.05C247.833 120.4 246.983 121.433 245.899 122.15C244.833 122.85 243.616 123.2 242.249 123.2ZM242.249 120.975C243.649 120.975 244.766 120.4 245.599 119.25C246.449 118.1 246.874 116.433 246.874 114.25C246.874 112.067 246.449 110.4 245.599 109.25C244.766 108.1 243.649 107.525 242.249 107.525C240.833 107.525 239.699 108.1 238.849 109.25C238.016 110.4 237.599 112.067 237.599 114.25C237.599 116.433 238.016 118.1 238.849 119.25C239.699 120.4 240.833 120.975 242.249 120.975ZM272.888 123.2C271.505 123.2 270.271 122.85 269.188 122.15C268.121 121.433 267.28 120.4 266.663 119.05C266.046 117.7 265.738 116.1 265.738 114.25C265.738 112.4 266.046 110.8 266.663 109.45C267.28 108.1 268.121 107.075 269.188 106.375C270.271 105.658 271.505 105.3 272.888 105.3C274.255 105.3 275.471 105.658 276.538 106.375C277.621 107.075 278.471 108.1 279.088 109.45C279.705 110.8 280.013 112.4 280.013 114.25C280.013 116.1 279.705 117.7 279.088 119.05C278.471 120.4 277.621 121.433 276.538 122.15C275.471 122.85 274.255 123.2 272.888 123.2ZM272.888 120.975C274.288 120.975 275.405 120.4 276.238 119.25C277.088 118.1 277.513 116.433 277.513 114.25C277.513 112.067 277.088 110.4 276.238 109.25C275.405 108.1 274.288 107.525 272.888 107.525C271.471 107.525 270.338 108.1 269.488 109.25C268.655 110.4 268.238 112.067 268.238 114.25C268.238 116.433 268.655 118.1 269.488 119.25C270.338 120.4 271.471 120.975 272.888 120.975ZM293.188 123.2C291.805 123.2 290.571 122.85 289.488 122.15C288.421 121.433 287.58 120.4 286.963 119.05C286.346 117.7 286.038 116.1 286.038 114.25C286.038 112.4 286.346 110.8 286.963 109.45C287.58 108.1 288.421 107.075 289.488 106.375C290.571 105.658 291.805 105.3 293.188 105.3C294.555 105.3 295.771 105.658 296.838 106.375C297.921 107.075 298.771 108.1 299.388 109.45C300.005 110.8 300.313 112.4 300.313 114.25C300.313 116.1 300.005 117.7 299.388 119.05C298.771 120.4 297.921 121.433 296.838 122.15C295.771 122.85 294.555 123.2 293.188 123.2ZM293.188 120.975C294.588 120.975 295.705 120.4 296.538 119.25C297.388 118.1 297.813 116.433 297.813 114.25C297.813 112.067 297.388 110.4 296.538 109.25C295.705 108.1 294.588 107.525 293.188 107.525C291.771 107.525 290.638 108.1 289.788 109.25C288.955 110.4 288.538 112.067 288.538 114.25C288.538 116.433 288.955 118.1 289.788 119.25C290.638 120.4 291.771 120.975 293.188 120.975ZM313.488 123.2C312.104 123.2 310.871 122.85 309.788 122.15C308.721 121.433 307.879 120.4 307.263 119.05C306.646 117.7 306.338 116.1 306.338 114.25C306.338 112.4 306.646 110.8 307.263 109.45C307.879 108.1 308.721 107.075 309.788 106.375C310.871 105.658 312.104 105.3 313.488 105.3C314.854 105.3 316.071 105.658 317.138 106.375C318.221 107.075 319.071 108.1 319.688 109.45C320.304 110.8 320.613 112.4 320.613 114.25C320.613 116.1 320.304 117.7 319.688 119.05C319.071 120.4 318.221 121.433 317.138 122.15C316.071 122.85 314.854 123.2 313.488 123.2ZM313.488 120.975C314.888 120.975 316.004 120.4 316.838 119.25C317.688 118.1 318.113 116.433 318.113 114.25C318.113 112.067 317.688 110.4 316.838 109.25C316.004 108.1 314.888 107.525 313.488 107.525C312.071 107.525 310.938 108.1 310.088 109.25C309.254 110.4 308.838 112.067 308.838 114.25C308.838 116.433 309.254 118.1 310.088 119.25C310.938 120.4 312.071 120.975 313.488 120.975ZM333.788 123.2C332.404 123.2 331.171 122.85 330.088 122.15C329.021 121.433 328.179 120.4 327.563 119.05C326.946 117.7 326.638 116.1 326.638 114.25C326.638 112.4 326.946 110.8 327.563 109.45C328.179 108.1 329.021 107.075 330.088 106.375C331.171 105.658 332.404 105.3 333.788 105.3C335.154 105.3 336.371 105.658 337.438 106.375C338.521 107.075 339.371 108.1 339.988 109.45C340.604 110.8 340.913 112.4 340.913 114.25C340.913 116.1 340.604 117.7 339.988 119.05C339.371 120.4 338.521 121.433 337.438 122.15C336.371 122.85 335.154 123.2 333.788 123.2ZM333.788 120.975C335.188 120.975 336.304 120.4 337.138 119.25C337.988 118.1 338.413 116.433 338.413 114.25C338.413 112.067 337.988 110.4 337.138 109.25C336.304 108.1 335.188 107.525 333.788 107.525C332.371 107.525 331.238 108.1 330.388 109.25C329.554 110.4 329.138 112.067 329.138 114.25C329.138 116.433 329.554 118.1 330.388 119.25C331.238 120.4 332.371 120.975 333.788 120.975Z" fill="white"/>
<defs>
<linearGradient id="paint0_linear_101_127" x1="0" y1="115" x2="363" y2="115" gradientUnits="userSpaceOnUse">
<stop stop-color="#FFE259"/>
<stop offset="1" stop-color="#FFA751"/>
</linearGradient>
</defs>
</svg>
