<svg width="363" height="230" viewBox="0 0 363 230" fill="none" xmlns="http://www.w3.org/2000/svg">
<rect width="363" height="230" rx="15" fill="url(#paint0_linear_209_163)"/>
<path d="M42.85 47L42.825 34.25L36.5 44.875H35.35L29.025 34.325V47H26.625V29.5H28.675L35.975 41.8L43.175 29.5H45.225L45.25 47H42.85ZM61.877 33.75L55.452 48.325C54.8853 49.675 54.2186 50.625 53.452 51.175C52.702 51.725 51.7936 52 50.727 52C50.077 52 49.4436 51.8917 48.827 51.675C48.227 51.475 47.727 51.175 47.327 50.775L48.352 48.975C49.0353 49.625 49.827 49.95 50.727 49.95C51.3103 49.95 51.7936 49.7917 52.177 49.475C52.577 49.175 52.9353 48.65 53.252 47.9L53.677 46.975L47.827 33.75H50.327L54.952 44.35L59.527 33.75H61.877ZM66.9668 31.675V37.775H75.7418V39.925H66.9668V47H64.4668V29.5H76.8168V31.675H66.9668ZM79.7418 33.75H82.1418V47H79.7418V33.75ZM80.9418 31.2C80.4751 31.2 80.0835 31.05 79.7668 30.75C79.4668 30.45 79.3168 30.0833 79.3168 29.65C79.3168 29.2167 79.4668 28.85 79.7668 28.55C80.0835 28.2333 80.4751 28.075 80.9418 28.075C81.4085 28.075 81.7918 28.225 82.0918 28.525C82.4085 28.8083 82.5668 29.1667 82.5668 29.6C82.5668 30.05 82.4085 30.4333 82.0918 30.75C81.7918 31.05 81.4085 31.2 80.9418 31.2ZM94.1742 46.225C93.8242 46.525 93.3909 46.7583 92.8742 46.925C92.3576 47.075 91.8242 47.15 91.2742 47.15C89.9409 47.15 88.9076 46.7917 88.1742 46.075C87.4409 45.3583 87.0742 44.3333 87.0742 43V35.725H84.8242V33.75H87.0742V30.85H89.4742V33.75H93.2742V35.725H89.4742V42.9C89.4742 43.6167 89.6492 44.1667 89.9992 44.55C90.3659 44.9333 90.8826 45.125 91.5492 45.125C92.2826 45.125 92.9076 44.9167 93.4242 44.5L94.1742 46.225ZM104.151 33.625C105.834 33.625 107.167 34.1167 108.151 35.1C109.151 36.0667 109.651 37.4917 109.651 39.375V47H107.251V39.65C107.251 38.3667 106.942 37.4 106.326 36.75C105.709 36.1 104.826 35.775 103.676 35.775C102.376 35.775 101.351 36.1583 100.601 36.925C99.8508 37.675 99.4758 38.7583 99.4758 40.175V47H97.0758V33.75H99.3758V35.75C99.8591 35.0667 100.509 34.5417 101.326 34.175C102.159 33.8083 103.101 33.625 104.151 33.625ZM126.141 40.45C126.141 40.6333 126.124 40.875 126.091 41.175H115.341C115.491 42.3417 115.999 43.2833 116.866 44C117.749 44.7 118.841 45.05 120.141 45.05C121.724 45.05 122.999 44.5167 123.966 43.45L125.291 45C124.691 45.7 123.941 46.2333 123.041 46.6C122.157 46.9667 121.166 47.15 120.066 47.15C118.666 47.15 117.424 46.8667 116.341 46.3C115.257 45.7167 114.416 44.9083 113.816 43.875C113.232 42.8417 112.941 41.675 112.941 40.375C112.941 39.0917 113.224 37.9333 113.791 36.9C114.374 35.8667 115.166 35.0667 116.166 34.5C117.182 33.9167 118.324 33.625 119.591 33.625C120.857 33.625 121.982 33.9167 122.966 34.5C123.966 35.0667 124.741 35.8667 125.291 36.9C125.857 37.9333 126.141 39.1167 126.141 40.45ZM119.591 35.65C118.441 35.65 117.474 36 116.691 36.7C115.924 37.4 115.474 38.3167 115.341 39.45H123.841C123.707 38.3333 123.249 37.425 122.466 36.725C121.699 36.0083 120.741 35.65 119.591 35.65ZM133.273 47.15C132.19 47.15 131.148 47.0083 130.148 46.725C129.148 46.425 128.365 46.05 127.798 45.6L128.798 43.7C129.382 44.1167 130.09 44.45 130.923 44.7C131.757 44.95 132.598 45.075 133.448 45.075C135.548 45.075 136.598 44.475 136.598 43.275C136.598 42.875 136.457 42.5583 136.173 42.325C135.89 42.0917 135.532 41.925 135.098 41.825C134.682 41.7083 134.082 41.5833 133.298 41.45C132.232 41.2833 131.357 41.0917 130.673 40.875C130.007 40.6583 129.432 40.2917 128.948 39.775C128.465 39.2583 128.223 38.5333 128.223 37.6C128.223 36.4 128.723 35.4417 129.723 34.725C130.723 33.9917 132.065 33.625 133.748 33.625C134.632 33.625 135.515 33.7333 136.398 33.95C137.282 34.1667 138.007 34.4583 138.573 34.825L137.548 36.725C136.465 36.025 135.19 35.675 133.723 35.675C132.707 35.675 131.932 35.8417 131.398 36.175C130.865 36.5083 130.598 36.95 130.598 37.5C130.598 37.9333 130.748 38.275 131.048 38.525C131.348 38.775 131.715 38.9583 132.148 39.075C132.598 39.1917 133.223 39.325 134.023 39.475C135.09 39.6583 135.948 39.8583 136.598 40.075C137.265 40.275 137.832 40.625 138.298 41.125C138.765 41.625 138.998 42.325 138.998 43.225C138.998 44.425 138.482 45.3833 137.448 46.1C136.432 46.8 135.04 47.15 133.273 47.15ZM145.798 47.15C144.714 47.15 143.673 47.0083 142.673 46.725C141.673 46.425 140.889 46.05 140.323 45.6L141.323 43.7C141.906 44.1167 142.614 44.45 143.448 44.7C144.281 44.95 145.123 45.075 145.973 45.075C148.073 45.075 149.123 44.475 149.123 43.275C149.123 42.875 148.981 42.5583 148.698 42.325C148.414 42.0917 148.056 41.925 147.623 41.825C147.206 41.7083 146.606 41.5833 145.823 41.45C144.756 41.2833 143.881 41.0917 143.198 40.875C142.531 40.6583 141.956 40.2917 141.473 39.775C140.989 39.2583 140.748 38.5333 140.748 37.6C140.748 36.4 141.248 35.4417 142.248 34.725C143.248 33.9917 144.589 33.625 146.273 33.625C147.156 33.625 148.039 33.7333 148.923 33.95C149.806 34.1667 150.531 34.4583 151.098 34.825L150.073 36.725C148.989 36.025 147.714 35.675 146.248 35.675C145.231 35.675 144.456 35.8417 143.923 36.175C143.389 36.5083 143.123 36.95 143.123 37.5C143.123 37.9333 143.273 38.275 143.573 38.525C143.873 38.775 144.239 38.9583 144.673 39.075C145.123 39.1917 145.748 39.325 146.548 39.475C147.614 39.6583 148.473 39.8583 149.123 40.075C149.789 40.275 150.356 40.625 150.823 41.125C151.289 41.625 151.523 42.325 151.523 43.225C151.523 44.425 151.006 45.3833 149.973 46.1C148.956 46.8 147.564 47.15 145.798 47.15Z" fill="white"/>
<path d="M33.27 122.24C31.69 122.24 30.16 122 28.68 121.52C27.22 121.02 26.07 120.38 25.23 119.6L26.34 117.26C27.14 117.98 28.16 118.57 29.4 119.03C30.66 119.47 31.95 119.69 33.27 119.69C35.01 119.69 36.31 119.4 37.17 118.82C38.03 118.22 38.46 117.43 38.46 116.45C38.46 115.73 38.22 115.15 37.74 114.71C37.28 114.25 36.7 113.9 36 113.66C35.32 113.42 34.35 113.15 33.09 112.85C31.51 112.47 30.23 112.09 29.25 111.71C28.29 111.33 27.46 110.75 26.76 109.97C26.08 109.17 25.74 108.1 25.74 106.76C25.74 105.64 26.03 104.63 26.61 103.73C27.21 102.83 28.11 102.11 29.31 101.57C30.51 101.03 32 100.76 33.78 100.76C35.02 100.76 36.24 100.92 37.44 101.24C38.64 101.56 39.67 102.02 40.53 102.62L39.54 105.02C38.66 104.46 37.72 104.04 36.72 103.76C35.72 103.46 34.74 103.31 33.78 103.31C32.08 103.31 30.8 103.62 29.94 104.24C29.1 104.86 28.68 105.66 28.68 106.64C28.68 107.36 28.92 107.95 29.4 108.41C29.88 108.85 30.47 109.2 31.17 109.46C31.89 109.7 32.86 109.96 34.08 110.24C35.66 110.62 36.93 111 37.89 111.38C38.85 111.76 39.67 112.34 40.35 113.12C41.05 113.9 41.4 114.95 41.4 116.27C41.4 117.37 41.1 118.38 40.5 119.3C39.9 120.2 38.99 120.92 37.77 121.46C36.55 121.98 35.05 122.24 33.27 122.24ZM45.3628 106.1H48.2428V122H45.3628V106.1ZM46.8028 103.04C46.2428 103.04 45.7728 102.86 45.3928 102.5C45.0328 102.14 44.8528 101.7 44.8528 101.18C44.8528 100.66 45.0328 100.22 45.3928 99.86C45.7728 99.48 46.2428 99.29 46.8028 99.29C47.3628 99.29 47.8228 99.47 48.1828 99.83C48.5628 100.17 48.7528 100.6 48.7528 101.12C48.7528 101.66 48.5628 102.12 48.1828 102.5C47.8228 102.86 47.3628 103.04 46.8028 103.04ZM53.7417 99.74H56.6217V122H53.7417V99.74ZM76.1906 106.1L69.2306 122H66.2906L59.3306 106.1H62.3306L67.7906 118.85L73.3706 106.1H76.1906ZM92.809 114.14C92.809 114.36 92.789 114.65 92.749 115.01H79.849C80.029 116.41 80.639 117.54 81.679 118.4C82.739 119.24 84.049 119.66 85.609 119.66C87.509 119.66 89.039 119.02 90.199 117.74L91.789 119.6C91.069 120.44 90.169 121.08 89.089 121.52C88.029 121.96 86.839 122.18 85.519 122.18C83.839 122.18 82.349 121.84 81.049 121.16C79.749 120.46 78.739 119.49 78.019 118.25C77.319 117.01 76.969 115.61 76.969 114.05C76.969 112.51 77.309 111.12 77.989 109.88C78.689 108.64 79.639 107.68 80.839 107C82.059 106.3 83.429 105.95 84.949 105.95C86.469 105.95 87.819 106.3 88.999 107C90.199 107.68 91.129 108.64 91.789 109.88C92.469 111.12 92.809 112.54 92.809 114.14ZM84.949 108.38C83.569 108.38 82.409 108.8 81.469 109.64C80.549 110.48 80.009 111.58 79.849 112.94H90.049C89.889 111.6 89.339 110.51 88.399 109.67C87.479 108.81 86.329 108.38 84.949 108.38ZM99.5681 108.77C100.068 107.85 100.808 107.15 101.788 106.67C102.768 106.19 103.958 105.95 105.358 105.95V108.74C105.198 108.72 104.978 108.71 104.698 108.71C103.138 108.71 101.908 109.18 101.008 110.12C100.128 111.04 99.6881 112.36 99.6881 114.08V122H96.8081V106.1H99.5681V108.77Z" fill="white"/>
<path d="M265.983 26.3902L259.717 30.4639V30.5259H266.083V26.3902H265.983Z" fill="#6CB2AA"/>
<path d="M267.512 40.9533V26.3902H273.423L285.807 36.3005L280.315 40.9533" fill="#6CB2AA"/>
<path d="M281.646 40.9533L304.699 21.7684H307.203V40.9533" fill="#6CB2AA"/>
<path d="M308.084 40.9534V20.1504H336.657" fill="#6CB2AA"/>
<path d="M296.363 63.271L268.715 41.9666H307.345" fill="#6CB2AA"/>
<path d="M294.413 69.5006L307.345 44.505V74.355" fill="#6CB2AA"/>
<path d="M326.635 29.3007L334.986 23.2056L338.08 24.1155" fill="#6CB2AA"/>
<path d="M45.21 183V204H42.75L30.15 188.34V204H27.15V183H29.61L42.21 198.66V183H45.21ZM64.8757 198.75H53.7157L51.4057 204H48.3157L57.8257 183H60.7957L70.3357 204H67.1857L64.8757 198.75ZM63.8257 196.35L59.2957 186.06L54.7657 196.35H63.8257ZM92.9384 204L92.9084 188.7L85.3184 201.45H83.9384L76.3484 188.79V204H73.4684V183H75.9284L84.6884 197.76L93.3284 183H95.7884L95.8184 204H92.9384ZM117.361 201.39V204H102.121V183H116.941V185.61H105.121V192.06H115.651V194.61H105.121V201.39H117.361Z" fill="white"/>
<path d="M159.35 123.2C157.967 123.2 156.733 122.85 155.65 122.15C154.583 121.433 153.742 120.4 153.125 119.05C152.508 117.7 152.2 116.1 152.2 114.25C152.2 112.4 152.508 110.8 153.125 109.45C153.742 108.1 154.583 107.075 155.65 106.375C156.733 105.658 157.967 105.3 159.35 105.3C160.717 105.3 161.933 105.658 163 106.375C164.083 107.075 164.933 108.1 165.55 109.45C166.167 110.8 166.475 112.4 166.475 114.25C166.475 116.1 166.167 117.7 165.55 119.05C164.933 120.4 164.083 121.433 163 122.15C161.933 122.85 160.717 123.2 159.35 123.2ZM159.35 120.975C160.75 120.975 161.867 120.4 162.7 119.25C163.55 118.1 163.975 116.433 163.975 114.25C163.975 112.067 163.55 110.4 162.7 109.25C161.867 108.1 160.75 107.525 159.35 107.525C157.933 107.525 156.8 108.1 155.95 109.25C155.117 110.4 154.7 112.067 154.7 114.25C154.7 116.433 155.117 118.1 155.95 119.25C156.8 120.4 157.933 120.975 159.35 120.975ZM179.65 123.2C178.266 123.2 177.033 122.85 175.95 122.15C174.883 121.433 174.041 120.4 173.425 119.05C172.808 117.7 172.5 116.1 172.5 114.25C172.5 112.4 172.808 110.8 173.425 109.45C174.041 108.1 174.883 107.075 175.95 106.375C177.033 105.658 178.266 105.3 179.65 105.3C181.016 105.3 182.233 105.658 183.3 106.375C184.383 107.075 185.233 108.1 185.85 109.45C186.466 110.8 186.775 112.4 186.775 114.25C186.775 116.1 186.466 117.7 185.85 119.05C185.233 120.4 184.383 121.433 183.3 122.15C182.233 122.85 181.016 123.2 179.65 123.2ZM179.65 120.975C181.05 120.975 182.166 120.4 183 119.25C183.85 118.1 184.275 116.433 184.275 114.25C184.275 112.067 183.85 110.4 183 109.25C182.166 108.1 181.05 107.525 179.65 107.525C178.233 107.525 177.1 108.1 176.25 109.25C175.416 110.4 175 112.067 175 114.25C175 116.433 175.416 118.1 176.25 119.25C177.1 120.4 178.233 120.975 179.65 120.975ZM199.95 123.2C198.566 123.2 197.333 122.85 196.25 122.15C195.183 121.433 194.341 120.4 193.725 119.05C193.108 117.7 192.8 116.1 192.8 114.25C192.8 112.4 193.108 110.8 193.725 109.45C194.341 108.1 195.183 107.075 196.25 106.375C197.333 105.658 198.566 105.3 199.95 105.3C201.316 105.3 202.533 105.658 203.6 106.375C204.683 107.075 205.533 108.1 206.15 109.45C206.766 110.8 207.075 112.4 207.075 114.25C207.075 116.1 206.766 117.7 206.15 119.05C205.533 120.4 204.683 121.433 203.6 122.15C202.533 122.85 201.316 123.2 199.95 123.2ZM199.95 120.975C201.35 120.975 202.466 120.4 203.3 119.25C204.15 118.1 204.575 116.433 204.575 114.25C204.575 112.067 204.15 110.4 203.3 109.25C202.466 108.1 201.35 107.525 199.95 107.525C198.533 107.525 197.4 108.1 196.55 109.25C195.716 110.4 195.3 112.067 195.3 114.25C195.3 116.433 195.716 118.1 196.55 119.25C197.4 120.4 198.533 120.975 199.95 120.975ZM220.249 123.2C218.866 123.2 217.633 122.85 216.549 122.15C215.483 121.433 214.641 120.4 214.024 119.05C213.408 117.7 213.099 116.1 213.099 114.25C213.099 112.4 213.408 110.8 214.024 109.45C214.641 108.1 215.483 107.075 216.549 106.375C217.633 105.658 218.866 105.3 220.249 105.3C221.616 105.3 222.833 105.658 223.899 106.375C224.983 107.075 225.833 108.1 226.449 109.45C227.066 110.8 227.374 112.4 227.374 114.25C227.374 116.1 227.066 117.7 226.449 119.05C225.833 120.4 224.983 121.433 223.899 122.15C222.833 122.85 221.616 123.2 220.249 123.2ZM220.249 120.975C221.649 120.975 222.766 120.4 223.599 119.25C224.449 118.1 224.874 116.433 224.874 114.25C224.874 112.067 224.449 110.4 223.599 109.25C222.766 108.1 221.649 107.525 220.249 107.525C218.833 107.525 217.699 108.1 216.849 109.25C216.016 110.4 215.599 112.067 215.599 114.25C215.599 116.433 216.016 118.1 216.849 119.25C217.699 120.4 218.833 120.975 220.249 120.975ZM250.888 123.2C249.505 123.2 248.271 122.85 247.188 122.15C246.121 121.433 245.28 120.4 244.663 119.05C244.046 117.7 243.738 116.1 243.738 114.25C243.738 112.4 244.046 110.8 244.663 109.45C245.28 108.1 246.121 107.075 247.188 106.375C248.271 105.658 249.505 105.3 250.888 105.3C252.255 105.3 253.471 105.658 254.538 106.375C255.621 107.075 256.471 108.1 257.088 109.45C257.705 110.8 258.013 112.4 258.013 114.25C258.013 116.1 257.705 117.7 257.088 119.05C256.471 120.4 255.621 121.433 254.538 122.15C253.471 122.85 252.255 123.2 250.888 123.2ZM250.888 120.975C252.288 120.975 253.405 120.4 254.238 119.25C255.088 118.1 255.513 116.433 255.513 114.25C255.513 112.067 255.088 110.4 254.238 109.25C253.405 108.1 252.288 107.525 250.888 107.525C249.471 107.525 248.338 108.1 247.488 109.25C246.655 110.4 246.238 112.067 246.238 114.25C246.238 116.433 246.655 118.1 247.488 119.25C248.338 120.4 249.471 120.975 250.888 120.975ZM271.188 123.2C269.805 123.2 268.571 122.85 267.488 122.15C266.421 121.433 265.58 120.4 264.963 119.05C264.346 117.7 264.038 116.1 264.038 114.25C264.038 112.4 264.346 110.8 264.963 109.45C265.58 108.1 266.421 107.075 267.488 106.375C268.571 105.658 269.805 105.3 271.188 105.3C272.555 105.3 273.771 105.658 274.838 106.375C275.921 107.075 276.771 108.1 277.388 109.45C278.005 110.8 278.313 112.4 278.313 114.25C278.313 116.1 278.005 117.7 277.388 119.05C276.771 120.4 275.921 121.433 274.838 122.15C273.771 122.85 272.555 123.2 271.188 123.2ZM271.188 120.975C272.588 120.975 273.705 120.4 274.538 119.25C275.388 118.1 275.813 116.433 275.813 114.25C275.813 112.067 275.388 110.4 274.538 109.25C273.705 108.1 272.588 107.525 271.188 107.525C269.771 107.525 268.638 108.1 267.788 109.25C266.955 110.4 266.538 112.067 266.538 114.25C266.538 116.433 266.955 118.1 267.788 119.25C268.638 120.4 269.771 120.975 271.188 120.975ZM291.488 123.2C290.104 123.2 288.871 122.85 287.788 122.15C286.721 121.433 285.879 120.4 285.263 119.05C284.646 117.7 284.338 116.1 284.338 114.25C284.338 112.4 284.646 110.8 285.263 109.45C285.879 108.1 286.721 107.075 287.788 106.375C288.871 105.658 290.104 105.3 291.488 105.3C292.854 105.3 294.071 105.658 295.138 106.375C296.221 107.075 297.071 108.1 297.688 109.45C298.304 110.8 298.613 112.4 298.613 114.25C298.613 116.1 298.304 117.7 297.688 119.05C297.071 120.4 296.221 121.433 295.138 122.15C294.071 122.85 292.854 123.2 291.488 123.2ZM291.488 120.975C292.888 120.975 294.004 120.4 294.838 119.25C295.688 118.1 296.113 116.433 296.113 114.25C296.113 112.067 295.688 110.4 294.838 109.25C294.004 108.1 292.888 107.525 291.488 107.525C290.071 107.525 288.938 108.1 288.088 109.25C287.254 110.4 286.838 112.067 286.838 114.25C286.838 116.433 287.254 118.1 288.088 119.25C288.938 120.4 290.071 120.975 291.488 120.975ZM311.788 123.2C310.404 123.2 309.171 122.85 308.088 122.15C307.021 121.433 306.179 120.4 305.563 119.05C304.946 117.7 304.638 116.1 304.638 114.25C304.638 112.4 304.946 110.8 305.563 109.45C306.179 108.1 307.021 107.075 308.088 106.375C309.171 105.658 310.404 105.3 311.788 105.3C313.154 105.3 314.371 105.658 315.438 106.375C316.521 107.075 317.371 108.1 317.988 109.45C318.604 110.8 318.913 112.4 318.913 114.25C318.913 116.1 318.604 117.7 317.988 119.05C317.371 120.4 316.521 121.433 315.438 122.15C314.371 122.85 313.154 123.2 311.788 123.2ZM311.788 120.975C313.188 120.975 314.304 120.4 315.138 119.25C315.988 118.1 316.413 116.433 316.413 114.25C316.413 112.067 315.988 110.4 315.138 109.25C314.304 108.1 313.188 107.525 311.788 107.525C310.371 107.525 309.238 108.1 308.388 109.25C307.554 110.4 307.138 112.067 307.138 114.25C307.138 116.433 307.554 118.1 308.388 119.25C309.238 120.4 310.371 120.975 311.788 120.975Z" fill="white"/>
<defs>
<linearGradient id="paint0_linear_209_163" x1="0" y1="115" x2="363" y2="115" gradientUnits="userSpaceOnUse">
<stop stop-color="#757F9A"/>
<stop offset="1" stop-color="#D7DDE8"/>
</linearGradient>
</defs>
</svg>
